<svg xmlns="http://www.w3.org/2000/svg" xmlns:xlink="http://www.w3.org/1999/xlink" width="3780" zoomAndPan="magnify" viewBox="0 0 2835 2834.999876" height="3780" preserveAspectRatio="xMidYMid meet" version="1.2"><defs><clipPath id="9b839a9c6d"><path d="M 403.394531 404.003906 L 2431.242188 404.003906 L 2431.242188 2430.550781 L 403.394531 2430.550781 Z M 403.394531 404.003906 "/></clipPath></defs><g id="832ce1486d"><path style=" stroke:none;fill-rule:nonzero;fill:#1e40af;fill-opacity:1;" d="M 1118.511719 1932.097656 L 763.433594 1703.824219 C 751.867188 1695.519531 736.660156 1694.269531 723.90625 1700.589844 C 711.152344 1706.910156 702.929688 1719.777344 702.519531 1733.988281 C 702.105469 1748.214844 709.601562 1761.503906 721.972656 1768.539062 L 810.769531 1825.621094 L 988.320312 1939.75 L 1077.070312 1996.832031 C 1085.65625 2002.34375 1096.0625 2004.214844 1106.027344 2002.042969 C 1116.027344 1999.886719 1124.707031 1993.835938 1130.222656 1985.25 C 1141.644531 1967.347656 1136.398438 1943.566406 1118.511719 1932.097656 "/><path style=" stroke:none;fill-rule:nonzero;fill:#1e40af;fill-opacity:1;" d="M 1399.496094 1030.65625 C 1328.222656 1005.070312 1248.597656 1027.074219 1200.546875 1085.582031 C 1220.0625 1105.765625 1243.652344 1121.546875 1269.777344 1131.90625 C 1281.898438 1136.722656 1289.851562 1148.460938 1289.851562 1161.515625 C 1289.851562 1174.570312 1281.898438 1186.308594 1269.777344 1191.140625 C 1132.835938 1245.878906 1130.394531 1409.707031 1130.394531 1416.691406 C 1130.539062 1434.292969 1116.359375 1448.679688 1098.757812 1448.789062 C 1081.15625 1448.933594 1066.769531 1434.769531 1066.644531 1417.152344 L 1066.644531 1416.691406 C 1065.519531 1383.835938 1059.136719 1351.375 1047.730469 1320.542969 L 824.902344 1667.433594 L 1126.195312 1861.171875 L 1186.875 1766.828125 L 1125.007812 1727.046875 C 1115.058594 1721.042969 1109.167969 1710.113281 1109.609375 1698.5 C 1110.054688 1686.902344 1116.769531 1676.445312 1127.164062 1671.234375 C 1137.539062 1666.023438 1149.929688 1666.878906 1159.511719 1673.4375 L 1221.378906 1713.1875 L 1262.886719 1648.5 L 1141.722656 1570.683594 C 1127.019531 1561.097656 1122.824219 1541.46875 1132.328125 1526.71875 C 1141.800781 1511.984375 1161.414062 1507.675781 1176.210938 1517.039062 L 1297.375 1594.90625 L 1339.011719 1530.1875 L 1277.066406 1490.359375 C 1262.269531 1480.792969 1258.023438 1461.035156 1267.574219 1446.222656 C 1277.144531 1431.425781 1296.917969 1427.179688 1311.730469 1436.734375 L 1373.625 1476.5625 L 1415.277344 1411.84375 L 1294.113281 1333.945312 C 1284.179688 1327.941406 1278.269531 1317.011719 1278.730469 1305.414062 C 1279.15625 1293.785156 1285.890625 1283.359375 1296.25 1278.148438 C 1306.644531 1272.921875 1319.046875 1273.761719 1328.617188 1280.351562 L 1449.78125 1358.25 L 1489.71875 1296.128906 C 1508.304688 1267.34375 1518.140625 1233.820312 1518.109375 1199.570312 C 1518.253906 1123.84375 1470.757812 1056.226562 1399.496094 1030.65625 "/><path style=" stroke:none;fill-rule:nonzero;fill:#1e40af;fill-opacity:1;" d="M 1532.496094 829.867188 C 1506.195312 828.601562 1481.226562 841.464844 1467 863.613281 L 1401.984375 964.816406 C 1450.699219 977.582031 1494.078125 1005.5625 1525.761719 1044.691406 L 1590.9375 943.332031 C 1605.179688 921.183594 1606.527344 893.113281 1594.457031 869.726562 C 1582.398438 846.34375 1558.792969 831.136719 1532.496094 829.867188 "/><path style=" stroke:none;fill-rule:nonzero;fill:#1e40af;fill-opacity:1;" d="M 1077.039062 1237.339844 C 1077.386719 1237.828125 1077.671875 1238.273438 1077.988281 1238.734375 C 1085.671875 1250.820312 1092.546875 1263.398438 1098.519531 1276.390625 C 1118.402344 1230.445312 1150.4375 1190.761719 1191.152344 1161.628906 C 1150.4375 1132.460938 1118.433594 1092.773438 1098.519531 1046.847656 C 1078.667969 1092.757812 1046.714844 1132.445312 1006.0625 1161.628906 C 1034.515625 1181.890625 1058.644531 1207.648438 1077.039062 1237.339844 "/><path style=" stroke:none;fill-rule:nonzero;fill:#1e40af;fill-opacity:1;" d="M 1831.824219 1161.628906 C 1831.824219 1144.011719 1846.113281 1129.734375 1863.730469 1129.734375 C 1881.347656 1129.734375 1895.605469 1144.011719 1895.605469 1161.628906 L 1895.605469 1257.269531 L 1959.371094 1257.269531 L 1959.371094 1161.628906 C 1959.371094 1144.011719 1973.648438 1129.734375 1991.246094 1129.734375 C 2008.863281 1129.734375 2023.140625 1144.011719 2023.140625 1161.628906 L 2023.140625 1257.269531 L 2086.90625 1257.269531 L 2086.90625 1161.628906 C 2086.90625 1144.011719 2101.195312 1129.734375 2118.78125 1129.734375 C 2136.398438 1129.734375 2150.671875 1144.011719 2150.671875 1161.628906 L 2150.671875 1257.269531 L 2246.328125 1257.269531 L 2246.328125 1129.734375 C 2246.328125 1094.519531 2217.78125 1065.96875 2182.5625 1065.96875 L 1799.964844 1065.96875 C 1764.730469 1065.96875 1736.183594 1094.519531 1736.183594 1129.734375 L 1736.183594 1257.269531 L 1831.824219 1257.269531 L 1831.824219 1161.628906 "/><path style=" stroke:none;fill-rule:nonzero;fill:#1e40af;fill-opacity:1;" d="M 583.761719 2048.320312 C 572.199219 2040.128906 557.070312 2038.988281 544.378906 2045.308594 C 531.6875 2051.628906 523.515625 2064.398438 523.085938 2078.578125 C 522.660156 2092.742188 530.058594 2106 542.320312 2113.082031 L 838.195312 2303.320312 C 846.796875 2308.800781 857.207031 2310.6875 867.1875 2308.550781 C 887.941406 2304.019531 901.105469 2283.503906 896.605469 2262.730469 C 894.4375 2252.703125 888.320312 2244.007812 879.6875 2238.539062 L 583.761719 2048.320312 "/><path style=" stroke:none;fill-rule:nonzero;fill:#1e40af;fill-opacity:1;" d="M 803.261719 1896.46875 L 704.421875 2049.917969 L 828.292969 2129.625 L 927.152344 1976.140625 L 836.578125 1917.871094 L 803.261719 1896.46875 "/><path style=" stroke:none;fill-rule:nonzero;fill:#1e40af;fill-opacity:1;" d="M 1289.820312 2213.761719 C 1289.820312 2266.597656 1332.640625 2309.40625 1385.460938 2309.40625 L 1449.242188 2309.40625 L 1449.242188 2118.105469 L 1385.460938 2118.105469 C 1332.640625 2118.105469 1289.820312 2160.945312 1289.820312 2213.761719 "/><path style=" stroke:none;fill-rule:nonzero;fill:#1e40af;fill-opacity:1;" d="M 2161.730469 1321.035156 L 1820.78125 1321.035156 C 1796.003906 1369.941406 1762.925781 1414.171875 1722.984375 1451.75 C 1691.078125 1482.234375 1672.84375 1524.328125 1672.417969 1568.449219 L 1672.417969 1579.015625 C 1699.714844 1584.464844 1725.28125 1596.488281 1746.910156 1614.042969 C 1786.371094 1648.421875 1845.164062 1648.421875 1884.628906 1614.042969 C 1946.570312 1563.410156 2035.589844 1563.410156 2097.503906 1614.042969 C 2137.09375 1648.40625 2195.902344 1648.40625 2235.492188 1614.042969 C 2257.117188 1596.441406 2282.734375 1584.417969 2310.078125 1578.96875 L 2310.078125 1568.449219 C 2309.652344 1524.230469 2291.355469 1482.058594 2259.367188 1451.515625 C 2219.492188 1414.015625 2186.460938 1369.863281 2161.730469 1321.035156 "/><g clip-rule="nonzero" clip-path="url(#9b839a9c6d)"><path style=" stroke:none;fill-rule:nonzero;fill:#1e40af;fill-opacity:1;" d="M 2373.847656 2181.871094 C 2373.75 2287.496094 2288.167969 2373.074219 2182.5625 2373.171875 L 1768.074219 2373.171875 C 1761.292969 2373.171875 1754.496094 2372.773438 1747.765625 2371.96875 C 1718.359375 2369.527344 1689.78125 2361.035156 1663.796875 2347.046875 C 1637.957031 2364.0625 1607.699219 2373.15625 1576.773438 2373.171875 L 1385.476562 2373.171875 C 1297.4375 2373.171875 1226.066406 2301.800781 1226.066406 2213.761719 C 1226.066406 2125.710938 1297.4375 2054.339844 1385.476562 2054.339844 L 1567.207031 2054.339844 C 1577.597656 2032.175781 1591.605469 2011.867188 1608.648438 1994.296875 L 1608.648438 1568.449219 C 1609.03125 1507.121094 1634.1875 1448.535156 1678.421875 1406.0625 C 1704.941406 1380.648438 1728.261719 1352.101562 1747.859375 1321.035156 L 1736.183594 1321.035156 C 1700.980469 1321.035156 1672.433594 1292.488281 1672.433594 1257.269531 L 1672.433594 1129.734375 C 1672.433594 1059.300781 1729.527344 1002.1875 1799.964844 1002.1875 L 2182.5625 1002.1875 C 2252.984375 1002.1875 2310.078125 1059.300781 2310.078125 1129.734375 L 2310.078125 1257.269531 C 2310.078125 1292.488281 2281.53125 1321.035156 2246.328125 1321.035156 L 2234.605469 1321.035156 C 2254.171875 1352.023438 2277.445312 1380.507812 2303.933594 1405.839844 C 2348.261719 1448.363281 2373.496094 1507.027344 2373.847656 1568.449219 Z M 1644.675781 977.648438 L 1562.722656 1105.179688 C 1593.949219 1178.894531 1586.675781 1263.304688 1543.285156 1330.585938 L 1409.9375 1537.824219 L 1409.9375 1537.871094 L 1409.761719 1538.0625 L 1333.957031 1655.882812 L 1333.957031 1656.246094 L 1333.542969 1656.738281 L 1258.039062 1774.070312 C 1257.847656 1774.226562 1258.007812 1774.371094 1257.847656 1774.605469 C 1257.691406 1774.8125 1257.453125 1775.019531 1257.277344 1775.273438 L 1176.859375 1900.238281 L 1176.8125 1900.238281 C 1208.402344 1939.148438 1207.089844 1995.230469 1173.675781 2032.601562 C 1140.28125 2069.960938 1084.671875 2077.53125 1042.515625 2050.457031 L 980.570312 2010.628906 L 881.9375 2164.253906 L 914.300781 2185.070312 C 948.964844 2207.472656 966.773438 2248.503906 959.4375 2289.125 C 952.085938 2329.746094 921.035156 2361.96875 880.730469 2370.808594 C 873.539062 2372.378906 866.171875 2373.171875 858.804688 2373.171875 C 839.273438 2373.21875 820.132812 2367.625 803.707031 2357.089844 L 507.828125 2166.835938 C 477.078125 2147.082031 459.175781 2112.417969 460.90625 2075.917969 C 462.648438 2039.398438 483.703125 2006.589844 516.179688 1989.84375 C 548.65625 1973.082031 587.613281 1974.921875 618.363281 1994.660156 L 650.792969 2015.492188 L 749.476562 1862.011719 L 687.484375 1822.167969 C 645.46875 1795.011719 629.34375 1741.417969 649.398438 1695.570312 C 669.457031 1649.753906 719.789062 1625.226562 768.25 1637.664062 L 1012.953125 1256.824219 C 990.980469 1227.515625 961.339844 1204.828125 927.292969 1191.316406 C 915.15625 1186.484375 907.207031 1174.746094 907.207031 1161.707031 C 907.207031 1148.652344 915.15625 1136.929688 927.292969 1132.097656 C 1064.203125 1077.328125 1066.644531 913.53125 1066.644531 906.546875 C 1066.503906 888.929688 1080.664062 874.558594 1098.28125 874.417969 C 1115.898438 874.273438 1130.285156 888.453125 1130.410156 906.054688 L 1130.410156 906.546875 C 1132.058594 950.238281 1143.003906 993.0625 1162.507812 1032.210938 C 1206.660156 985.695312 1267.402344 958.523438 1331.5 956.59375 L 1413.5 829.074219 C 1448.023438 775.621094 1514.78125 752.875 1574.761719 774.132812 L 1773.382812 474.441406 C 1783.410156 460.71875 1802.421875 457.3125 1816.617188 466.660156 C 1830.792969 476.007812 1835.183594 494.84375 1826.546875 509.46875 L 1628.261719 808.65625 C 1672.335938 854.328125 1679.132812 924.351562 1644.675781 977.648438 Z M 2343.617188 1364.394531 C 2337.945312 1358.945312 2332.417969 1353.320312 2327.03125 1347.523438 C 2351.839844 1325.34375 2367.460938 1293.089844 2367.460938 1257.253906 L 2367.460938 1129.734375 C 2367.460938 1027.773438 2284.507812 944.804688 2182.546875 944.804688 L 1799.964844 944.804688 C 1768.230469 944.804688 1738.8125 953.566406 1712.6875 967.714844 C 1731.558594 914.402344 1726.519531 855.753906 1698.273438 806.863281 L 1875.976562 538.632812 C 1900.183594 497.585938 1887.96875 444.925781 1848.207031 418.769531 C 1833.566406 409.105469 1816.601562 404.003906 1799.078125 404.003906 C 1770.75 404.003906 1743.820312 417.660156 1725.535156 442.738281 L 1548.542969 709.828125 C 1542.046875 709.179688 1535.472656 708.847656 1528.929688 708.847656 C 1462.503906 708.847656 1401.335938 742.148438 1365.230469 798.023438 L 1298.53125 901.792969 C 1260.460938 906.847656 1224.152344 919.078125 1191.199219 937.691406 C 1189.34375 927.046875 1188.21875 916.320312 1187.808594 905.578125 C 1187.398438 856.753906 1147.363281 817.035156 1097.855469 817.035156 C 1074.011719 817.226562 1051.65625 826.667969 1034.910156 843.652344 C 1018.199219 860.632812 1009.089844 883.128906 1009.246094 906.449219 C 1009.214844 911.804688 1007.1875 1038.324219 906.015625 1078.785156 C 871.875 1092.410156 849.808594 1124.96875 849.808594 1161.722656 C 849.808594 1198.507812 871.890625 1231.050781 906.097656 1244.640625 C 918.34375 1249.503906 929.765625 1256.015625 940.125 1263.984375 L 738.941406 1577.113281 C 677.171875 1578.601562 621.691406 1615.753906 596.832031 1672.550781 C 565.324219 1744.539062 590.355469 1827.710938 656.449219 1870.453125 L 670.152344 1879.277344 L 632.9375 1937.121094 C 611.234375 1926.585938 587.40625 1921.054688 563.058594 1921.054688 C 537.691406 1921.054688 512.375 1927.21875 489.863281 1938.847656 C 439.34375 1964.875 406.277344 2016.363281 403.570312 2073.238281 C 400.894531 2130.003906 428.964844 2184.359375 476.777344 2215.109375 L 772.71875 2405.410156 C 798.367188 2421.855469 828.070312 2430.550781 858.601562 2430.550781 L 858.804688 2430.550781 C 870.308594 2430.550781 881.792969 2429.316406 893.042969 2426.859375 C 956.191406 2413 1004.429688 2362.921875 1015.917969 2299.328125 C 1026.261719 2241.945312 1004.78125 2184.46875 960.59375 2147.96875 L 997.855469 2089.9375 L 1011.511719 2098.714844 C 1037.257812 2115.269531 1067.007812 2124.015625 1097.570312 2124.015625 C 1142.941406 2124.015625 1186.257812 2104.625 1216.453125 2070.847656 C 1258.894531 2023.398438 1268.382812 1957.445312 1244.222656 1901.632812 L 1303.917969 1808.8125 C 1304.695312 1807.765625 1305.441406 1806.71875 1306.121094 1805.644531 C 1306.800781 1804.597656 1307.453125 1803.503906 1308.054688 1802.378906 L 1380.550781 1689.738281 C 1381.976562 1687.757812 1383.257812 1685.699219 1384.398438 1683.527344 L 1591.507812 1361.6875 C 1604.625 1341.34375 1614.828125 1319.6875 1622.558594 1297.351562 C 1629.417969 1316.710938 1640.460938 1334.105469 1655.480469 1347.554688 C 1650.0625 1353.417969 1644.46875 1359.136719 1638.671875 1364.664062 C 1583.585938 1417.5625 1551.726562 1491.707031 1551.269531 1568.449219 L 1551.269531 1972.574219 C 1544.929688 1980.386719 1539.023438 1988.496094 1533.554688 1996.941406 L 1385.492188 1996.941406 C 1265.929688 1996.941406 1168.671875 2094.199219 1168.671875 2213.761719 C 1168.671875 2333.296875 1265.929688 2430.550781 1385.492188 2430.550781 L 1576.789062 2430.550781 C 1607.777344 2430.550781 1638.101562 2423.945312 1665.984375 2411.242188 C 1690.414062 2420.921875 1715.824219 2426.859375 1741.125 2428.984375 C 1750.046875 2430.03125 1759.089844 2430.550781 1768.058594 2430.550781 L 2182.578125 2430.550781 C 2319.570312 2430.441406 2431.101562 2318.941406 2431.242188 2181.886719 L 2431.242188 1568.148438 C 2430.832031 1491.660156 2398.925781 1417.421875 2343.617188 1364.394531 "/></g><path style=" stroke:none;fill-rule:nonzero;fill:#1e40af;fill-opacity:1;" d="M 1901.054688 2062.195312 L 1734.695312 2228.558594 C 1732.523438 2253.480469 1724.445312 2277.511719 1711.152344 2298.695312 C 1724.980469 2304.035156 1739.492188 2307.34375 1754.257812 2308.550781 C 1758.855469 2309.121094 1763.449219 2309.40625 1768.074219 2309.40625 C 1856.0625 2309.308594 1927.386719 2237.984375 1927.480469 2149.996094 C 1927.578125 2118.753906 1918.371094 2088.195312 1901.054688 2062.195312 "/><path style=" stroke:none;fill-rule:nonzero;fill:#1e40af;fill-opacity:1;" d="M 2060.035156 1665.640625 C 2020.476562 1631.265625 1961.652344 1631.265625 1922.125 1665.640625 C 1860.230469 1716.289062 1771.226562 1716.289062 1709.34375 1665.640625 C 1698.238281 1656.769531 1685.757812 1649.769531 1672.417969 1644.855469 L 1672.417969 1799.289062 L 2150.65625 1799.289062 C 2185.890625 1799.289062 2214.421875 1827.824219 2214.421875 1863.039062 L 2214.421875 2118.105469 C 2214.421875 2153.324219 2185.890625 2181.871094 2150.65625 2181.871094 L 1988.699219 2181.871094 C 1981.742188 2230.351562 1958.992188 2275.183594 1923.933594 2309.40625 L 2182.5625 2309.40625 C 2252.984375 2309.40625 2310.078125 2252.308594 2310.078125 2181.871094 L 2310.078125 1644.839844 C 2296.675781 1649.71875 2284.144531 1656.753906 2272.960938 1665.640625 C 2211.015625 1716.289062 2121.964844 1716.289062 2060.035156 1665.640625 "/><path style=" stroke:none;fill-rule:nonzero;fill:#1e40af;fill-opacity:1;" d="M 1855.96875 2017.015625 C 1820.257812 1993.328125 1776.46875 1985.089844 1734.597656 1994.199219 C 1692.710938 2003.292969 1656.289062 2028.929688 1633.585938 2065.285156 C 1673.460938 2080.542969 1705.574219 2111.117188 1722.796875 2150.171875 L 1855.96875 2017.015625 "/><path style=" stroke:none;fill-rule:nonzero;fill:#1e40af;fill-opacity:1;" d="M 1576.773438 2118.105469 L 1513.007812 2118.105469 L 1513.007812 2309.40625 L 1576.773438 2309.40625 C 1629.59375 2309.40625 1672.433594 2266.597656 1672.433594 2213.761719 C 1672.433594 2160.945312 1629.59375 2118.105469 1576.773438 2118.105469 "/><path style=" stroke:none;fill-rule:nonzero;fill:#1e40af;fill-opacity:1;" d="M 1924.757812 1991.316406 C 1925.136719 1991.632812 1925.613281 1991.761719 1925.960938 1992.125 C 1926.308594 1992.457031 1926.4375 1992.917969 1926.769531 1993.28125 C 1960.433594 2027.058594 1982.203125 2070.878906 1988.761719 2118.105469 L 2150.671875 2118.105469 L 2150.671875 1863.054688 L 1672.433594 1863.054688 L 1672.433594 1948.683594 C 1702.28125 1934.378906 1734.964844 1926.902344 1768.074219 1926.808594 C 1826.816406 1926.570312 1883.203125 1949.792969 1924.757812 1991.316406 "/><path style=" stroke:none;fill-rule:nonzero;fill:#1e40af;fill-opacity:1;" d="M 715.921875 1053.214844 C 735.773438 1007.273438 767.726562 967.617188 808.394531 938.4375 C 767.726562 909.253906 735.773438 869.585938 715.921875 823.65625 C 696.070312 869.585938 664.117188 909.253906 623.464844 938.4375 C 664.117188 967.617188 696.070312 1007.273438 715.921875 1053.214844 "/><path style=" stroke:none;fill-rule:nonzero;fill:#1e40af;fill-opacity:1;" d="M 544.695312 908.921875 C 681.605469 854.171875 684.046875 690.359375 684.046875 683.371094 C 683.902344 665.753906 698.082031 651.371094 715.683594 651.242188 C 733.300781 651.101562 747.6875 665.296875 747.8125 682.878906 L 747.8125 683.371094 C 747.8125 690.261719 750.238281 854.074219 887.179688 908.730469 C 899.300781 913.546875 907.253906 925.289062 907.253906 938.34375 C 907.253906 951.378906 899.300781 963.121094 887.179688 967.96875 C 750.238281 1022.703125 747.8125 1186.53125 747.8125 1193.488281 C 747.875 1204.894531 741.871094 1215.460938 732.050781 1221.226562 C 722.226562 1226.960938 710.058594 1227.039062 700.160156 1221.417969 C 690.257812 1215.792969 684.125 1205.304688 684.046875 1193.914062 L 684.046875 1193.488281 C 684.046875 1186.609375 681.640625 1022.796875 544.695312 968.140625 C 532.558594 963.308594 524.605469 951.585938 524.605469 938.53125 C 524.605469 925.476562 532.558594 913.753906 544.695312 908.921875 Z M 523.417969 1021.4375 C 624.574219 1061.820312 626.617188 1188.226562 626.648438 1194.292969 C 626.855469 1226.105469 644.15625 1255.636719 671.847656 1271.335938 C 685.265625 1278.972656 700.507812 1282.980469 715.9375 1282.980469 C 731.78125 1282.980469 747.402344 1278.734375 761.105469 1270.71875 C 788.511719 1254.636719 805.402344 1224.902344 805.195312 1193.582031 C 805.242188 1188.226562 807.253906 1061.707031 908.457031 1021.261719 C 942.582031 1007.652344 964.648438 975.097656 964.648438 938.359375 C 964.648438 901.601562 942.582031 869.046875 908.457031 855.421875 C 807.300781 815.054688 805.242188 688.632812 805.195312 682.46875 C 804.832031 633.609375 764.796875 593.84375 715.273438 593.84375 C 666.035156 594.226562 626.300781 634.578125 626.648438 683.277344 C 626.617188 688.648438 624.605469 815.167969 523.5 855.597656 C 489.308594 869.1875 467.226562 901.730469 467.226562 938.546875 C 467.226562 975.320312 489.308594 1007.875 523.417969 1021.4375 "/></g></svg>