<svg xmlns="http://www.w3.org/2000/svg" xmlns:xlink="http://www.w3.org/1999/xlink" width="3780" zoomAndPan="magnify" viewBox="0 0 2835 2834.999876" height="3780" preserveAspectRatio="xMidYMid meet" version="1.2"><defs><clipPath id="4d049e19e1"><path d="M 742.621094 936 L 1238 936 L 1238 1432 L 742.621094 1432 Z M 742.621094 936 "/></clipPath><clipPath id="1bc751d65b"><path d="M 948 730.957031 L 1444 730.957031 L 1444 1227 L 948 1227 Z M 948 730.957031 "/></clipPath></defs><g id="d09d71dbb9"><path style=" stroke:none;fill-rule:nonzero;fill:#1e40af;fill-opacity:1;" d="M 1761.828125 799.066406 C 1749.433594 798.800781 1737.039062 798.835938 1724.644531 799.179688 C 1712.253906 799.519531 1699.875 800.164062 1687.511719 801.113281 C 1675.148438 802.0625 1662.820312 803.3125 1650.519531 804.863281 C 1638.214844 806.417969 1625.960938 808.269531 1613.75 810.421875 C 1601.542969 812.574219 1589.390625 815.023438 1577.300781 817.773438 C 1565.210938 820.519531 1553.195312 823.5625 1541.253906 826.898438 C 1529.3125 830.234375 1517.460938 833.863281 1505.699219 837.78125 C 1493.933594 841.695312 1482.273438 845.898438 1470.714844 850.386719 C 1459.160156 854.875 1447.71875 859.644531 1436.394531 864.695312 C 1425.070312 869.742188 1413.878906 875.066406 1402.816406 880.664062 C 1391.75 886.261719 1380.832031 892.125 1370.054688 898.257812 C 1359.28125 904.390625 1348.660156 910.785156 1338.199219 917.4375 C 1327.738281 924.089844 1317.445312 930.992188 1307.320312 938.148438 C 1297.195312 945.308594 1287.253906 952.707031 1277.492188 960.351562 C 1267.730469 967.996094 1258.160156 975.875 1248.785156 983.988281 C 1239.410156 992.097656 1230.238281 1000.4375 1221.269531 1009 C 1212.304688 1017.5625 1203.550781 1026.335938 1195.015625 1035.328125 C 1186.476562 1044.320312 1178.164062 1053.515625 1170.078125 1062.914062 C 1161.992188 1072.308594 1154.140625 1081.902344 1146.523438 1091.683594 C 1138.90625 1101.464844 1131.53125 1111.429688 1124.402344 1121.574219 C 1117.273438 1131.71875 1110.398438 1142.03125 1103.773438 1152.511719 C 1097.152344 1162.992188 1090.789062 1173.628906 1084.6875 1184.421875 C 1078.582031 1195.214844 1072.75 1206.148438 1067.183594 1217.226562 C 1061.617188 1228.304688 1056.324219 1239.515625 1051.304688 1250.851562 C 1046.289062 1262.191406 1041.550781 1273.644531 1037.09375 1285.214844 C 1032.640625 1296.785156 1028.46875 1308.457031 1024.582031 1320.230469 C 1020.699219 1332.003906 1017.105469 1343.867188 1013.800781 1355.816406 C 1010.5 1367.765625 1007.488281 1379.789062 1004.773438 1391.886719 C 1002.0625 1403.984375 999.644531 1416.144531 997.523438 1428.359375 C 995.40625 1440.574219 993.589844 1452.835938 992.070312 1465.140625 C 990.550781 1477.445312 989.335938 1489.78125 988.421875 1502.144531 C 987.507812 1514.511719 986.898438 1526.890625 986.589844 1539.285156 C 986.898438 1551.679688 987.507812 1564.058594 988.421875 1576.421875 C 989.335938 1588.789062 990.550781 1601.121094 992.070312 1613.425781 C 993.589844 1625.734375 995.40625 1637.992188 997.523438 1650.210938 C 999.644531 1662.425781 1002.0625 1674.582031 1004.773438 1686.679688 C 1007.488281 1698.777344 1010.5 1710.800781 1013.800781 1722.75 C 1017.105469 1734.703125 1020.699219 1746.5625 1024.582031 1758.339844 C 1028.46875 1770.113281 1032.640625 1781.785156 1037.09375 1793.355469 C 1041.550781 1804.925781 1046.289062 1816.378906 1051.304688 1827.714844 C 1056.324219 1839.054688 1061.617188 1850.261719 1067.183594 1861.339844 C 1072.75 1872.417969 1078.582031 1883.355469 1084.6875 1894.148438 C 1090.789062 1904.9375 1097.152344 1915.574219 1103.773438 1926.058594 C 1110.398438 1936.539062 1117.273438 1946.851562 1124.402344 1956.996094 C 1131.53125 1967.136719 1138.90625 1977.101562 1146.523438 1986.882812 C 1154.140625 1996.667969 1161.992188 2006.257812 1170.078125 2015.65625 C 1178.164062 2025.054688 1186.476562 2034.25 1195.015625 2043.238281 C 1203.550781 2052.230469 1212.304688 2061.007812 1221.269531 2069.570312 C 1230.238281 2078.132812 1239.410156 2086.46875 1248.785156 2094.582031 C 1258.160156 2102.695312 1267.730469 2110.574219 1277.492188 2118.214844 C 1287.253906 2125.859375 1297.195312 2133.261719 1307.320312 2140.417969 C 1317.445312 2147.574219 1327.738281 2154.480469 1338.199219 2161.132812 C 1348.660156 2167.785156 1359.28125 2174.175781 1370.054688 2180.308594 C 1380.832031 2186.441406 1391.75 2192.308594 1402.816406 2197.902344 C 1413.878906 2203.5 1425.070312 2208.824219 1436.394531 2213.875 C 1447.71875 2218.921875 1459.160156 2223.691406 1470.714844 2228.179688 C 1482.273438 2232.667969 1493.933594 2236.871094 1505.699219 2240.789062 C 1517.460938 2244.707031 1529.3125 2248.332031 1541.253906 2251.667969 C 1553.195312 2255.003906 1565.210938 2258.046875 1577.300781 2260.796875 C 1589.390625 2263.542969 1601.542969 2265.996094 1613.75 2268.148438 C 1625.960938 2270.300781 1638.214844 2272.152344 1650.519531 2273.703125 C 1662.820312 2275.257812 1675.148438 2276.507812 1687.511719 2277.453125 C 1699.875 2278.402344 1712.253906 2279.046875 1724.644531 2279.390625 C 1737.039062 2279.730469 1749.433594 2279.769531 1761.828125 2279.503906 L 2291.722656 2279.503906 C 2295.324219 2279.507812 2298.921875 2279.378906 2302.511719 2279.121094 C 2306.101562 2278.859375 2309.679688 2278.46875 2313.238281 2277.945312 C 2316.800781 2277.417969 2320.339844 2276.765625 2323.851562 2275.980469 C 2327.367188 2275.195312 2330.847656 2274.28125 2334.292969 2273.242188 C 2337.738281 2272.199219 2341.140625 2271.03125 2344.503906 2269.738281 C 2347.863281 2268.445312 2351.171875 2267.03125 2354.425781 2265.496094 C 2357.683594 2263.957031 2360.878906 2262.304688 2364.011719 2260.53125 C 2367.144531 2258.757812 2370.210938 2256.871094 2373.203125 2254.875 C 2376.199219 2252.875 2379.113281 2250.769531 2381.953125 2248.554688 C 2384.792969 2246.34375 2387.546875 2244.027344 2390.214844 2241.609375 C 2392.882812 2239.191406 2395.460938 2236.679688 2397.941406 2234.074219 C 2400.425781 2231.46875 2402.808594 2228.773438 2405.09375 2225.988281 C 2407.378906 2223.207031 2409.558594 2220.34375 2411.632812 2217.402344 C 2413.703125 2214.457031 2415.664062 2211.441406 2417.515625 2208.351562 C 2419.367188 2205.265625 2421.101562 2202.113281 2422.71875 2198.898438 C 2424.339844 2195.679688 2425.835938 2192.410156 2427.210938 2189.082031 C 2428.589844 2185.757812 2429.839844 2182.382812 2430.96875 2178.964844 C 2432.097656 2175.546875 2433.097656 2172.089844 2433.972656 2168.597656 C 2434.84375 2165.105469 2435.585938 2161.582031 2436.199219 2158.035156 C 2436.8125 2154.488281 2437.296875 2150.921875 2437.644531 2147.339844 C 2437.996094 2143.757812 2438.214844 2140.164062 2438.300781 2136.566406 C 2438.386719 2132.96875 2438.339844 2129.371094 2438.15625 2125.773438 C 2437.976562 2122.179688 2437.664062 2118.59375 2437.222656 2115.019531 C 2436.777344 2111.449219 2436.203125 2107.898438 2435.496094 2104.367188 C 2434.789062 2100.835938 2433.953125 2097.335938 2432.988281 2093.867188 C 2432.023438 2090.398438 2430.933594 2086.972656 2429.714844 2083.582031 C 2428.5 2080.195312 2427.15625 2076.855469 2425.695312 2073.566406 C 2424.230469 2070.277344 2422.648438 2067.046875 2420.945312 2063.875 C 2419.242188 2060.703125 2417.425781 2057.597656 2415.496094 2054.558594 C 2413.5625 2051.519531 2411.523438 2048.554688 2409.375 2045.667969 C 2407.222656 2042.78125 2404.96875 2039.976562 2402.613281 2037.253906 C 2400.257812 2034.53125 2397.804688 2031.902344 2395.253906 2029.359375 L 2367.175781 2001.078125 C 2373.949219 1993.097656 2380.542969 1984.972656 2386.957031 1976.703125 C 2393.371094 1968.433594 2399.601562 1960.027344 2405.648438 1951.484375 C 2411.695312 1942.941406 2417.550781 1934.269531 2423.214844 1925.472656 C 2428.882812 1916.671875 2434.351562 1907.75 2439.625 1898.710938 C 2444.898438 1889.667969 2449.96875 1880.515625 2454.839844 1871.253906 C 2459.710938 1861.988281 2464.375 1852.625 2468.835938 1843.15625 C 2473.296875 1833.6875 2477.546875 1824.125 2481.585938 1814.46875 C 2485.625 1804.816406 2489.449219 1795.074219 2493.0625 1785.253906 C 2496.675781 1775.429688 2500.070312 1765.53125 2503.246094 1755.558594 C 2506.421875 1745.585938 2509.378906 1735.550781 2512.113281 1725.449219 C 2514.851562 1715.34375 2517.363281 1705.1875 2519.652344 1694.976562 C 2521.941406 1684.761719 2524.007812 1674.503906 2525.847656 1664.203125 C 2527.683594 1653.898438 2529.296875 1643.558594 2530.683594 1633.1875 C 2532.066406 1622.8125 2533.222656 1612.414062 2534.152344 1601.988281 C 2535.078125 1591.5625 2535.777344 1581.121094 2536.246094 1570.667969 C 2536.71875 1560.210938 2536.957031 1549.75 2536.964844 1539.285156 C 2536.660156 1526.890625 2536.050781 1514.511719 2535.140625 1502.148438 C 2534.226562 1489.78125 2533.011719 1477.449219 2531.496094 1465.144531 C 2529.980469 1452.839844 2528.164062 1440.578125 2526.046875 1428.363281 C 2523.929688 1416.148438 2521.515625 1403.992188 2518.800781 1391.894531 C 2516.089844 1379.796875 2513.082031 1367.773438 2509.777344 1355.824219 C 2506.476562 1343.871094 2502.882812 1332.011719 2499 1320.238281 C 2495.117188 1308.460938 2490.949219 1296.789062 2486.492188 1285.222656 C 2482.039062 1273.652344 2477.304688 1262.199219 2472.289062 1250.859375 C 2467.269531 1239.523438 2461.980469 1228.316406 2456.414062 1217.234375 C 2450.851562 1206.15625 2445.015625 1195.222656 2438.914062 1184.429688 C 2432.8125 1173.636719 2426.453125 1163 2419.828125 1152.519531 C 2413.207031 1142.039062 2406.332031 1131.726562 2399.207031 1121.582031 C 2392.078125 1111.4375 2384.707031 1101.472656 2377.089844 1091.691406 C 2369.472656 1081.910156 2361.625 1072.316406 2353.539062 1062.917969 C 2345.453125 1053.519531 2337.140625 1044.328125 2328.605469 1035.335938 C 2320.070312 1026.34375 2311.316406 1017.566406 2302.351562 1009.003906 C 2293.386719 1000.441406 2284.214844 992.105469 2274.839844 983.992188 C 2265.464844 975.878906 2255.898438 968 2246.136719 960.355469 C 2236.375 952.710938 2226.433594 945.3125 2216.3125 938.15625 C 2206.1875 930.996094 2195.894531 924.09375 2185.433594 917.441406 C 2174.972656 910.789062 2164.355469 904.394531 2153.578125 898.261719 C 2142.804688 892.128906 2131.886719 886.265625 2120.824219 880.667969 C 2109.761719 875.070312 2098.570312 869.746094 2087.246094 864.699219 C 2075.921875 859.648438 2064.484375 854.878906 2052.925781 850.390625 C 2041.371094 845.902344 2029.710938 841.699219 2017.949219 837.78125 C 2006.183594 833.863281 1994.332031 830.238281 1982.394531 826.898438 C 1970.453125 823.5625 1958.4375 820.519531 1946.347656 817.773438 C 1934.257812 815.023438 1922.109375 812.574219 1909.898438 810.421875 C 1897.691406 808.269531 1885.4375 806.417969 1873.136719 804.863281 C 1860.835938 803.3125 1848.503906 802.0625 1836.144531 801.113281 C 1823.78125 800.164062 1811.40625 799.519531 1799.011719 799.179688 C 1786.617188 798.835938 1774.222656 798.800781 1761.828125 799.066406 Z M 1761.828125 799.066406 "/><path style=" stroke:none;fill-rule:nonzero;fill:#ffffff;fill-opacity:1;" d="M 1184.152344 288.570312 C 1170.6875 288.277344 1157.222656 288.316406 1143.757812 288.6875 C 1130.292969 289.054688 1116.84375 289.753906 1103.414062 290.78125 C 1089.984375 291.808594 1076.585938 293.164062 1063.222656 294.847656 C 1049.859375 296.53125 1036.546875 298.542969 1023.28125 300.878906 C 1010.015625 303.214844 996.816406 305.875 983.679688 308.855469 C 970.542969 311.839844 957.492188 315.144531 944.515625 318.765625 C 931.542969 322.386719 918.667969 326.328125 905.886719 330.578125 C 893.105469 334.832031 880.4375 339.398438 867.882812 344.269531 C 855.324219 349.144531 842.894531 354.324219 830.59375 359.808594 C 818.289062 365.289062 806.128906 371.070312 794.109375 377.148438 C 782.089844 383.230469 770.226562 389.597656 758.519531 396.257812 C 746.8125 402.917969 735.273438 409.863281 723.90625 417.085938 C 712.539062 424.3125 701.355469 431.8125 690.355469 439.585938 C 679.355469 447.359375 668.550781 455.398438 657.945312 463.699219 C 647.339844 472.003906 636.941406 480.558594 626.757812 489.371094 C 616.570312 498.183594 606.605469 507.242188 596.859375 516.542969 C 587.117188 525.839844 577.609375 535.375 568.332031 545.140625 C 559.054688 554.90625 550.023438 564.894531 541.238281 575.105469 C 532.449219 585.3125 523.917969 595.730469 515.644531 606.355469 C 507.367188 616.984375 499.355469 627.804688 491.609375 638.824219 C 483.863281 649.84375 476.390625 661.046875 469.195312 672.433594 C 461.996094 683.816406 455.082031 695.371094 448.453125 707.097656 C 441.820312 718.820312 435.480469 730.699219 429.429688 742.734375 C 423.382812 754.769531 417.632812 766.945312 412.179688 779.261719 C 406.726562 791.578125 401.578125 804.019531 396.734375 816.589844 C 391.890625 829.15625 387.359375 841.835938 383.136719 854.628906 C 378.917969 867.417969 375.011719 880.304688 371.417969 893.289062 C 367.828125 906.269531 364.558594 919.332031 361.609375 932.472656 C 358.65625 945.617188 356.03125 958.824219 353.726562 972.09375 C 351.425781 985.363281 349.445312 998.683594 347.796875 1012.050781 C 346.144531 1025.421875 344.824219 1038.820312 343.828125 1052.253906 C 342.835938 1065.6875 342.167969 1079.136719 341.835938 1092.601562 C 341.839844 1104.117188 342.101562 1115.625 342.621094 1127.128906 C 343.136719 1138.632812 343.910156 1150.121094 344.941406 1161.589844 C 345.96875 1173.0625 347.253906 1184.503906 348.792969 1195.914062 C 350.332031 1207.328125 352.125 1218.699219 354.167969 1230.035156 C 356.214844 1241.367188 358.511719 1252.648438 361.058594 1263.878906 C 363.605469 1275.109375 366.402344 1286.277344 369.445312 1297.382812 C 372.492188 1308.488281 375.78125 1319.523438 379.316406 1330.480469 C 382.855469 1341.441406 386.632812 1352.316406 390.652344 1363.109375 C 394.671875 1373.898438 398.929688 1384.597656 403.425781 1395.199219 C 407.921875 1405.800781 412.652344 1416.296875 417.617188 1426.6875 C 422.582031 1437.078125 427.773438 1447.355469 433.195312 1457.515625 C 438.617188 1467.675781 444.261719 1477.710938 450.128906 1487.617188 C 455.996094 1497.527344 462.082031 1507.300781 468.386719 1516.9375 C 474.6875 1526.574219 481.203125 1536.070312 487.929688 1545.417969 C 494.652344 1554.765625 501.585938 1563.957031 508.71875 1572.996094 C 515.855469 1582.035156 523.1875 1590.910156 530.71875 1599.625 L 495.085938 1635.15625 C 492.425781 1637.8125 489.867188 1640.566406 487.410156 1643.414062 C 484.953125 1646.257812 482.601562 1649.191406 480.363281 1652.214844 C 478.121094 1655.234375 475.992188 1658.332031 473.980469 1661.507812 C 471.96875 1664.683594 470.074219 1667.929688 468.300781 1671.246094 C 466.527344 1674.5625 464.875 1677.941406 463.351562 1681.378906 C 461.828125 1684.816406 460.429688 1688.304688 459.164062 1691.84375 C 457.894531 1695.386719 456.757812 1698.96875 455.753906 1702.59375 C 454.75 1706.214844 453.878906 1709.871094 453.144531 1713.558594 C 452.410156 1717.25 451.8125 1720.957031 451.351562 1724.691406 C 450.890625 1728.421875 450.566406 1732.167969 450.378906 1735.921875 C 450.195312 1739.679688 450.148438 1743.4375 450.238281 1747.199219 C 450.332031 1750.957031 450.558594 1754.707031 450.925781 1758.449219 C 451.296875 1762.195312 451.800781 1765.917969 452.441406 1769.625 C 453.082031 1773.328125 453.859375 1777.003906 454.773438 1780.652344 C 455.6875 1784.300781 456.730469 1787.910156 457.910156 1791.484375 C 459.089844 1795.054688 460.398438 1798.578125 461.835938 1802.050781 C 463.273438 1805.527344 464.839844 1808.945312 466.527344 1812.304688 C 468.21875 1815.664062 470.03125 1818.957031 471.960938 1822.183594 C 473.894531 1825.410156 475.945312 1828.558594 478.109375 1831.632812 C 480.273438 1834.710938 482.546875 1837.699219 484.933594 1840.609375 C 487.316406 1843.515625 489.804688 1846.332031 492.398438 1849.058594 C 494.992188 1851.78125 497.679688 1854.40625 500.464844 1856.933594 C 503.253906 1859.457031 506.128906 1861.878906 509.089844 1864.195312 C 512.054688 1866.507812 515.101562 1868.710938 518.226562 1870.800781 C 521.355469 1872.890625 524.554688 1874.863281 527.824219 1876.71875 C 531.097656 1878.570312 534.433594 1880.304688 537.832031 1881.910156 C 541.230469 1883.519531 544.683594 1885 548.191406 1886.355469 C 551.699219 1887.710938 555.253906 1888.933594 558.851562 1890.027344 C 562.453125 1891.117188 566.085938 1892.078125 569.753906 1892.902344 C 573.421875 1893.726562 577.117188 1894.417969 580.839844 1894.96875 C 584.558594 1895.519531 588.292969 1895.9375 592.042969 1896.214844 C 595.792969 1896.492188 599.550781 1896.628906 603.308594 1896.632812 L 1184.152344 1896.632812 C 1197.617188 1896.921875 1211.085938 1896.882812 1224.546875 1896.515625 C 1238.011719 1896.144531 1251.460938 1895.449219 1264.890625 1894.417969 C 1278.320312 1893.390625 1291.71875 1892.035156 1305.082031 1890.351562 C 1318.445312 1888.667969 1331.757812 1886.660156 1345.023438 1884.320312 C 1358.289062 1881.984375 1371.488281 1879.324219 1384.625 1876.34375 C 1397.761719 1873.359375 1410.8125 1870.058594 1423.789062 1866.433594 C 1436.761719 1862.8125 1449.636719 1858.875 1462.417969 1854.621094 C 1475.199219 1850.367188 1487.867188 1845.804688 1500.421875 1840.929688 C 1512.980469 1836.054688 1525.410156 1830.875 1537.710938 1825.394531 C 1550.015625 1819.910156 1562.175781 1814.128906 1574.195312 1808.050781 C 1586.214844 1801.972656 1598.078125 1795.601562 1609.785156 1788.941406 C 1621.492188 1782.28125 1633.03125 1775.339844 1644.398438 1768.113281 C 1655.765625 1760.886719 1666.949219 1753.386719 1677.949219 1745.613281 C 1688.949219 1737.839844 1699.753906 1729.800781 1710.359375 1721.5 C 1720.964844 1713.195312 1731.363281 1704.640625 1741.546875 1695.828125 C 1751.734375 1687.015625 1761.699219 1677.960938 1771.445312 1668.660156 C 1781.1875 1659.359375 1790.695312 1649.824219 1799.972656 1640.058594 C 1809.25 1630.292969 1818.28125 1620.304688 1827.066406 1610.097656 C 1835.855469 1599.886719 1844.386719 1589.46875 1852.660156 1578.84375 C 1860.9375 1568.214844 1868.949219 1557.394531 1876.695312 1546.375 C 1884.441406 1535.355469 1891.914062 1524.152344 1899.109375 1512.769531 C 1906.308594 1501.382812 1913.222656 1489.828125 1919.855469 1478.105469 C 1926.484375 1466.378906 1932.824219 1454.5 1938.875 1442.464844 C 1944.921875 1430.429688 1950.675781 1418.253906 1956.125 1405.9375 C 1961.578125 1393.621094 1966.726562 1381.179688 1971.570312 1368.609375 C 1976.414062 1356.042969 1980.945312 1343.363281 1985.167969 1330.570312 C 1989.390625 1317.78125 1993.296875 1304.894531 1996.886719 1291.914062 C 2000.476562 1278.929688 2003.746094 1265.867188 2006.695312 1252.726562 C 2009.648438 1239.585938 2012.273438 1226.378906 2014.578125 1213.105469 C 2016.878906 1199.835938 2018.859375 1186.515625 2020.507812 1173.148438 C 2022.160156 1159.78125 2023.480469 1146.378906 2024.476562 1132.945312 C 2025.46875 1119.515625 2026.136719 1106.066406 2026.46875 1092.601562 C 2026.136719 1079.136719 2025.46875 1065.6875 2024.476562 1052.253906 C 2023.480469 1038.820312 2022.160156 1025.421875 2020.507812 1012.050781 C 2018.859375 998.683594 2016.878906 985.363281 2014.578125 972.09375 C 2012.273438 958.824219 2009.648438 945.617188 2006.695312 932.472656 C 2003.746094 919.332031 2000.476562 906.269531 1996.886719 893.289062 C 1993.296875 880.304688 1989.390625 867.417969 1985.167969 854.628906 C 1980.945312 841.835938 1976.414062 829.15625 1971.570312 816.589844 C 1966.726562 804.019531 1961.578125 791.578125 1956.125 779.261719 C 1950.671875 766.945312 1944.921875 754.769531 1938.875 742.734375 C 1932.824219 730.699219 1926.484375 718.820312 1919.851562 707.097656 C 1913.222656 695.371094 1906.308594 683.816406 1899.109375 672.433594 C 1891.914062 661.046875 1884.441406 649.84375 1876.695312 638.824219 C 1868.949219 627.804688 1860.9375 616.984375 1852.660156 606.355469 C 1844.386719 595.730469 1835.855469 585.3125 1827.066406 575.101562 C 1818.28125 564.894531 1809.25 554.90625 1799.972656 545.140625 C 1790.695312 535.375 1781.1875 525.839844 1771.445312 516.542969 C 1761.699219 507.242188 1751.734375 498.183594 1741.546875 489.371094 C 1731.363281 480.558594 1720.964844 472.003906 1710.359375 463.699219 C 1699.753906 455.398438 1688.949219 447.359375 1677.949219 439.585938 C 1666.949219 431.8125 1655.765625 424.3125 1644.398438 417.085938 C 1633.03125 409.863281 1621.492188 402.917969 1609.785156 396.257812 C 1598.078125 389.597656 1586.214844 383.230469 1574.195312 377.148438 C 1562.175781 371.070312 1550.015625 365.289062 1537.710938 359.808594 C 1525.410156 354.324219 1512.980469 349.144531 1500.421875 344.269531 C 1487.867188 339.398438 1475.199219 334.832031 1462.417969 330.578125 C 1449.636719 326.328125 1436.761719 322.386719 1423.789062 318.765625 C 1410.8125 315.144531 1397.761719 311.839844 1384.625 308.855469 C 1371.488281 305.875 1358.289062 303.214844 1345.023438 300.878906 C 1331.757812 298.542969 1318.445312 296.53125 1305.082031 294.847656 C 1291.71875 293.164062 1278.320312 291.808594 1264.890625 290.78125 C 1251.460938 289.753906 1238.011719 289.054688 1224.546875 288.6875 C 1211.085938 288.316406 1197.617188 288.277344 1184.152344 288.570312 Z M 1184.152344 288.570312 "/><path style=" stroke:none;fill-rule:nonzero;fill:#1e40af;fill-opacity:1;" d="M 2291.929688 2279.503906 L 1762.035156 2279.503906 C 1753.042969 2279.570312 1744.050781 2279.480469 1735.0625 2279.238281 C 1726.074219 2278.996094 1717.09375 2278.59375 1708.117188 2278.039062 C 1699.144531 2277.484375 1690.179688 2276.777344 1681.230469 2275.910156 C 1672.28125 2275.046875 1663.347656 2274.027344 1654.429688 2272.851562 C 1645.515625 2271.675781 1636.625 2270.347656 1627.753906 2268.867188 C 1618.886719 2267.386719 1610.046875 2265.75 1601.234375 2263.960938 C 1592.421875 2262.175781 1583.640625 2260.234375 1574.894531 2258.140625 C 1566.152344 2256.050781 1557.445312 2253.808594 1548.777344 2251.414062 C 1540.109375 2249.019531 1531.484375 2246.480469 1522.90625 2243.785156 C 1514.324219 2241.09375 1505.796875 2238.253906 1497.3125 2235.269531 C 1488.832031 2232.28125 1480.40625 2229.148438 1472.03125 2225.871094 C 1463.660156 2222.589844 1455.347656 2219.167969 1447.089844 2215.601562 C 1438.835938 2212.035156 1430.648438 2208.328125 1422.519531 2204.476562 C 1414.394531 2200.625 1406.335938 2196.636719 1398.347656 2192.507812 C 1390.363281 2188.378906 1382.445312 2184.113281 1374.605469 2179.710938 C 1366.765625 2175.308594 1359.003906 2170.769531 1351.320312 2166.097656 C 1343.636719 2161.425781 1336.039062 2156.625 1328.519531 2151.691406 C 1321.003906 2146.753906 1313.574219 2141.691406 1306.234375 2136.5 C 1298.890625 2131.308594 1291.640625 2125.992188 1284.484375 2120.546875 C 1277.324219 2115.105469 1270.265625 2109.539062 1263.300781 2103.851562 C 1256.335938 2098.164062 1249.46875 2092.359375 1242.707031 2086.433594 C 1235.941406 2080.511719 1229.28125 2074.46875 1222.726562 2068.316406 C 1216.171875 2062.160156 1209.726562 2055.894531 1203.386719 2049.515625 C 1197.050781 2043.136719 1190.824219 2036.648438 1184.710938 2030.054688 C 1178.597656 2023.460938 1172.597656 2016.765625 1166.714844 2009.960938 C 1160.835938 2003.160156 1155.074219 1996.257812 1149.429688 1989.257812 C 1143.785156 1982.257812 1138.265625 1975.160156 1132.871094 1967.96875 C 1127.472656 1960.777344 1122.199219 1953.492188 1117.054688 1946.117188 C 1111.910156 1938.742188 1106.894531 1931.28125 1102.007812 1923.734375 C 1097.121094 1916.183594 1092.367188 1908.554688 1087.742188 1900.84375 C 1083.121094 1893.128906 1078.632812 1885.339844 1074.28125 1877.46875 C 1069.925781 1869.601562 1065.710938 1861.660156 1061.632812 1853.648438 C 1061.082031 1852.519531 1060.558594 1851.382812 1060.066406 1850.230469 C 1059.570312 1849.078125 1059.105469 1847.914062 1058.667969 1846.738281 C 1058.230469 1845.566406 1057.820312 1844.378906 1057.441406 1843.183594 C 1057.0625 1841.988281 1056.710938 1840.785156 1056.390625 1839.574219 C 1056.070312 1838.363281 1055.78125 1837.144531 1055.519531 1835.917969 C 1055.257812 1834.691406 1055.03125 1833.457031 1054.828125 1832.21875 C 1054.628906 1830.980469 1054.460938 1829.742188 1054.320312 1828.496094 C 1054.183594 1827.25 1054.074219 1826 1053.996094 1824.75 C 1053.917969 1823.496094 1053.871094 1822.246094 1053.855469 1820.992188 C 1053.839844 1819.738281 1053.855469 1818.484375 1053.898438 1817.230469 C 1053.945312 1815.976562 1054.019531 1814.726562 1054.128906 1813.476562 C 1054.234375 1812.226562 1054.371094 1810.984375 1054.542969 1809.738281 C 1054.710938 1808.496094 1054.90625 1807.261719 1055.136719 1806.027344 C 1055.367188 1804.792969 1055.625 1803.566406 1055.914062 1802.347656 C 1056.203125 1801.128906 1056.523438 1799.917969 1056.871094 1798.710938 C 1057.21875 1797.507812 1057.597656 1796.3125 1058.003906 1795.125 C 1058.414062 1793.941406 1058.847656 1792.765625 1059.3125 1791.601562 C 1059.777344 1790.4375 1060.273438 1789.285156 1060.792969 1788.144531 C 1061.316406 1787.003906 1061.863281 1785.878906 1062.441406 1784.765625 C 1063.019531 1783.652344 1063.621094 1782.554688 1064.253906 1781.46875 C 1064.886719 1780.386719 1065.542969 1779.320312 1066.226562 1778.269531 C 1066.910156 1777.21875 1067.617188 1776.183594 1068.351562 1775.167969 C 1069.085938 1774.152344 1069.84375 1773.152344 1070.628906 1772.175781 C 1071.410156 1771.195312 1072.21875 1770.234375 1073.046875 1769.296875 C 1073.878906 1768.359375 1074.730469 1767.4375 1075.605469 1766.542969 C 1076.480469 1765.644531 1077.378906 1764.769531 1078.296875 1763.914062 C 1079.214844 1763.0625 1080.15625 1762.230469 1081.113281 1761.421875 C 1082.074219 1760.617188 1083.050781 1759.832031 1084.050781 1759.074219 C 1085.046875 1758.3125 1086.0625 1757.578125 1087.097656 1756.871094 C 1088.128906 1756.160156 1089.179688 1755.476562 1090.25 1754.820312 C 1091.316406 1754.160156 1092.398438 1753.53125 1093.496094 1752.925781 C 1094.59375 1752.320312 1095.707031 1751.746094 1096.835938 1751.195312 C 1097.960938 1750.644531 1099.101562 1750.121094 1100.253906 1749.628906 C 1101.40625 1749.132812 1102.570312 1748.667969 1103.746094 1748.230469 C 1104.917969 1747.796875 1106.105469 1747.386719 1107.300781 1747.007812 C 1108.496094 1746.628906 1109.699219 1746.28125 1110.910156 1745.960938 C 1112.125 1745.640625 1113.34375 1745.351562 1114.570312 1745.09375 C 1115.796875 1744.832031 1117.027344 1744.605469 1118.265625 1744.40625 C 1119.503906 1744.207031 1120.746094 1744.039062 1121.992188 1743.898438 C 1123.238281 1743.761719 1124.488281 1743.652344 1125.738281 1743.578125 C 1126.992188 1743.5 1128.242188 1743.453125 1129.496094 1743.4375 C 1130.75 1743.425781 1132.003906 1743.441406 1133.257812 1743.484375 C 1134.507812 1743.53125 1135.761719 1743.609375 1137.007812 1743.71875 C 1138.257812 1743.824219 1139.503906 1743.964844 1140.746094 1744.132812 C 1141.988281 1744.300781 1143.226562 1744.5 1144.457031 1744.730469 C 1145.691406 1744.960938 1146.917969 1745.21875 1148.136719 1745.511719 C 1149.355469 1745.800781 1150.570312 1746.121094 1151.773438 1746.46875 C 1152.976562 1746.820312 1154.171875 1747.199219 1155.355469 1747.605469 C 1156.542969 1748.015625 1157.71875 1748.453125 1158.882812 1748.917969 C 1160.046875 1749.382812 1161.195312 1749.878906 1162.335938 1750.398438 C 1163.476562 1750.921875 1164.601562 1751.472656 1165.714844 1752.050781 C 1166.828125 1752.628906 1167.925781 1753.234375 1169.007812 1753.863281 C 1170.09375 1754.496094 1171.160156 1755.15625 1172.210938 1755.839844 C 1173.261719 1756.523438 1174.292969 1757.230469 1175.308594 1757.96875 C 1176.324219 1758.703125 1177.324219 1759.460938 1178.300781 1760.246094 C 1179.28125 1761.027344 1180.238281 1761.835938 1181.175781 1762.667969 C 1182.117188 1763.5 1183.035156 1764.351562 1183.929688 1765.226562 C 1184.828125 1766.105469 1185.703125 1767 1186.554688 1767.921875 C 1187.40625 1768.839844 1188.238281 1769.777344 1189.042969 1770.738281 C 1189.851562 1771.699219 1190.632812 1772.675781 1191.390625 1773.675781 C 1192.152344 1774.675781 1192.882812 1775.691406 1193.59375 1776.722656 C 1194.300781 1777.757812 1194.984375 1778.808594 1195.640625 1779.878906 C 1196.300781 1780.945312 1196.929688 1782.027344 1197.535156 1783.128906 C 1198.136719 1784.226562 1198.714844 1785.339844 1199.261719 1786.464844 C 1202.554688 1792.882812 1205.957031 1799.242188 1209.46875 1805.539062 C 1212.980469 1811.839844 1216.597656 1818.074219 1220.328125 1824.25 C 1224.054688 1830.421875 1227.886719 1836.53125 1231.824219 1842.570312 C 1235.765625 1848.613281 1239.804688 1854.582031 1243.953125 1860.484375 C 1248.097656 1866.386719 1252.34375 1872.214844 1256.691406 1877.96875 C 1261.039062 1883.722656 1265.480469 1889.398438 1270.027344 1895 C 1274.570312 1900.601562 1279.207031 1906.121094 1283.941406 1911.5625 C 1288.675781 1917 1293.503906 1922.359375 1298.421875 1927.632812 C 1303.34375 1932.90625 1308.351562 1938.089844 1313.449219 1943.191406 C 1318.550781 1948.289062 1323.734375 1953.300781 1329.007812 1958.222656 C 1334.28125 1963.140625 1339.636719 1967.96875 1345.074219 1972.703125 C 1350.515625 1977.4375 1356.035156 1982.078125 1361.632812 1986.625 C 1367.234375 1991.167969 1372.910156 1995.613281 1378.664062 1999.960938 C 1384.417969 2004.308594 1390.246094 2008.554688 1396.148438 2012.703125 C 1402.046875 2016.847656 1408.019531 2020.890625 1414.058594 2024.832031 C 1420.097656 2028.769531 1426.207031 2032.605469 1432.378906 2036.332031 C 1438.550781 2040.058594 1444.789062 2043.679688 1451.085938 2047.195312 C 1457.386719 2050.707031 1463.742188 2054.109375 1470.160156 2057.402344 C 1476.574219 2060.695312 1483.046875 2063.875 1489.570312 2066.945312 C 1496.097656 2070.011719 1502.675781 2072.96875 1509.304688 2075.808594 C 1515.933594 2078.648438 1522.609375 2081.375 1529.332031 2083.984375 C 1536.054688 2086.597656 1542.820312 2089.089844 1549.628906 2091.464844 C 1556.4375 2093.84375 1563.285156 2096.101562 1570.171875 2098.238281 C 1577.058594 2100.378906 1583.980469 2102.398438 1590.9375 2104.296875 C 1597.894531 2106.195312 1604.882812 2107.976562 1611.902344 2109.632812 C 1618.921875 2111.292969 1625.964844 2112.828125 1633.035156 2114.242188 C 1640.109375 2115.65625 1647.203125 2116.949219 1654.320312 2118.117188 C 1661.433594 2119.285156 1668.570312 2120.332031 1675.722656 2121.253906 C 1682.875 2122.175781 1690.039062 2122.972656 1697.222656 2123.648438 C 1704.402344 2124.324219 1711.589844 2124.871094 1718.789062 2125.296875 C 1725.988281 2125.722656 1733.191406 2126.023438 1740.402344 2126.199219 C 1747.613281 2126.375 1754.824219 2126.425781 1762.035156 2126.355469 L 2275.386719 2126.355469 L 2206.472656 2058.253906 C 2205.566406 2057.367188 2204.683594 2056.457031 2203.824219 2055.527344 C 2202.960938 2054.59375 2202.125 2053.644531 2201.3125 2052.671875 C 2200.5 2051.699219 2199.710938 2050.707031 2198.949219 2049.691406 C 2198.183594 2048.679688 2197.445312 2047.652344 2196.734375 2046.601562 C 2196.019531 2045.554688 2195.335938 2044.488281 2194.675781 2043.40625 C 2194.015625 2042.320312 2193.382812 2041.222656 2192.78125 2040.109375 C 2192.175781 2038.996094 2191.597656 2037.867188 2191.050781 2036.722656 C 2190.5 2035.582031 2189.980469 2034.425781 2189.488281 2033.253906 C 2189 2032.085938 2188.535156 2030.90625 2188.105469 2029.714844 C 2187.671875 2028.523438 2187.269531 2027.320312 2186.898438 2026.109375 C 2186.523438 2024.898438 2186.183594 2023.675781 2185.871094 2022.449219 C 2185.558594 2021.21875 2185.277344 2019.984375 2185.027344 2018.742188 C 2184.777344 2017.5 2184.554688 2016.25 2184.367188 2014.996094 C 2184.179688 2013.742188 2184.023438 2012.484375 2183.898438 2011.222656 C 2183.769531 2009.960938 2183.675781 2008.699219 2183.613281 2007.433594 C 2183.550781 2006.164062 2183.519531 2004.898438 2183.519531 2003.632812 C 2183.519531 2002.363281 2183.550781 2001.097656 2183.613281 1999.828125 C 2183.675781 1998.5625 2183.769531 1997.300781 2183.898438 1996.039062 C 2184.023438 1994.777344 2184.179688 1993.519531 2184.367188 1992.265625 C 2184.554688 1991.011719 2184.777344 1989.761719 2185.027344 1988.519531 C 2185.277344 1987.277344 2185.558594 1986.042969 2185.871094 1984.8125 C 2186.183594 1983.585938 2186.523438 1982.363281 2186.898438 1981.152344 C 2187.269531 1979.941406 2187.671875 1978.738281 2188.105469 1977.546875 C 2188.535156 1976.355469 2189 1975.175781 2189.488281 1974.007812 C 2189.980469 1972.835938 2190.5 1971.679688 2191.050781 1970.539062 C 2191.597656 1969.394531 2192.175781 1968.265625 2192.78125 1967.152344 C 2193.382812 1966.039062 2194.015625 1964.941406 2194.675781 1963.855469 C 2195.335938 1962.773438 2196.019531 1961.707031 2196.734375 1960.660156 C 2197.445312 1959.609375 2198.183594 1958.582031 2198.949219 1957.570312 C 2199.710938 1956.554688 2200.5 1955.5625 2201.3125 1954.589844 C 2202.125 1953.617188 2202.960938 1952.667969 2203.824219 1951.734375 C 2204.683594 1950.804688 2205.566406 1949.894531 2206.472656 1949.007812 C 2213.402344 1942.421875 2220.160156 1935.667969 2226.75 1928.742188 C 2233.339844 1921.820312 2239.75 1914.730469 2245.984375 1907.484375 C 2252.214844 1900.238281 2258.261719 1892.835938 2264.125 1885.285156 C 2269.984375 1877.734375 2275.652344 1870.039062 2281.125 1862.203125 C 2286.597656 1854.367188 2291.871094 1846.398438 2296.945312 1838.296875 C 2302.019531 1830.191406 2306.882812 1821.96875 2311.542969 1813.621094 C 2316.203125 1805.273438 2320.648438 1796.816406 2324.882812 1788.246094 C 2329.113281 1779.675781 2333.128906 1771.003906 2336.925781 1762.230469 C 2340.722656 1753.457031 2344.296875 1744.597656 2347.648438 1735.644531 C 2351 1726.691406 2354.125 1717.660156 2357.023438 1708.550781 C 2359.917969 1699.441406 2362.585938 1690.265625 2365.019531 1681.019531 C 2367.457031 1671.777344 2369.65625 1662.476562 2371.625 1653.125 C 2373.589844 1643.769531 2375.324219 1634.371094 2376.816406 1624.929688 C 2378.3125 1615.488281 2379.566406 1606.015625 2380.585938 1596.511719 C 2381.605469 1587.007812 2382.382812 1577.480469 2382.921875 1567.9375 C 2383.460938 1558.394531 2383.757812 1548.84375 2383.816406 1539.285156 C 2383.6875 1530.859375 2383.375 1522.445312 2382.886719 1514.035156 C 2382.394531 1505.625 2381.726562 1497.230469 2380.875 1488.851562 C 2380.027344 1480.46875 2379 1472.109375 2377.792969 1463.773438 C 2376.585938 1455.4375 2375.203125 1447.128906 2373.640625 1438.851562 C 2372.078125 1430.574219 2370.339844 1422.332031 2368.425781 1414.128906 C 2366.511719 1405.925781 2364.425781 1397.765625 2362.164062 1389.652344 C 2359.902344 1381.539062 2357.464844 1373.476562 2354.859375 1365.464844 C 2352.253906 1357.457031 2349.476562 1349.503906 2346.527344 1341.613281 C 2343.582031 1333.722656 2340.46875 1325.894531 2337.1875 1318.136719 C 2333.90625 1310.378906 2330.460938 1302.695312 2326.851562 1295.082031 C 2323.242188 1287.472656 2319.472656 1279.941406 2315.539062 1272.492188 C 2311.609375 1265.039062 2307.519531 1257.675781 2303.273438 1250.402344 C 2299.027344 1243.125 2294.628906 1235.945312 2290.078125 1228.859375 C 2285.523438 1221.769531 2280.820312 1214.785156 2275.96875 1207.898438 C 2271.117188 1201.011719 2266.121094 1194.230469 2260.980469 1187.558594 C 2255.839844 1180.882812 2250.558594 1174.324219 2245.136719 1167.878906 C 2239.714844 1161.429688 2234.160156 1155.101562 2228.46875 1148.890625 C 2222.773438 1142.679688 2216.953125 1136.597656 2211 1130.636719 C 2205.050781 1124.675781 2198.972656 1118.84375 2192.773438 1113.140625 C 2186.570312 1107.441406 2180.25 1101.875 2173.8125 1096.441406 C 2167.371094 1091.011719 2160.820312 1085.71875 2154.15625 1080.570312 C 2147.488281 1075.417969 2140.71875 1070.410156 2133.839844 1065.550781 C 2126.960938 1060.6875 2119.980469 1055.972656 2112.898438 1051.410156 C 2105.820312 1046.847656 2098.644531 1042.4375 2091.375 1038.179688 C 2084.105469 1033.921875 2076.75 1029.824219 2069.304688 1025.878906 C 2061.859375 1021.9375 2054.335938 1018.15625 2046.730469 1014.535156 C 2039.125 1010.914062 2031.445312 1007.457031 2023.691406 1004.164062 C 2015.9375 1000.871094 2008.117188 997.746094 2000.230469 994.789062 C 1992.34375 991.828125 1984.394531 989.039062 1976.390625 986.421875 C 1968.382812 983.800781 1960.324219 981.355469 1952.214844 979.082031 C 1944.101562 976.804688 1935.945312 974.707031 1927.746094 972.777344 C 1919.546875 970.851562 1911.308594 969.101562 1903.03125 967.527344 C 1901.808594 967.261719 1900.589844 966.96875 1899.378906 966.640625 C 1898.167969 966.316406 1896.96875 965.960938 1895.777344 965.578125 C 1894.582031 965.191406 1893.398438 964.777344 1892.226562 964.335938 C 1891.054688 963.894531 1889.894531 963.421875 1888.746094 962.921875 C 1887.59375 962.425781 1886.457031 961.898438 1885.335938 961.339844 C 1884.210938 960.785156 1883.101562 960.203125 1882.007812 959.59375 C 1880.914062 958.984375 1879.832031 958.347656 1878.769531 957.683594 C 1877.707031 957.023438 1876.660156 956.332031 1875.628906 955.621094 C 1874.597656 954.90625 1873.585938 954.167969 1872.59375 953.402344 C 1871.601562 952.636719 1870.625 951.851562 1869.671875 951.039062 C 1868.714844 950.226562 1867.78125 949.394531 1866.867188 948.535156 C 1865.953125 947.679688 1865.0625 946.796875 1864.191406 945.898438 C 1863.320312 944.996094 1862.472656 944.074219 1861.644531 943.128906 C 1860.820312 942.1875 1860.019531 941.226562 1859.242188 940.242188 C 1858.460938 939.261719 1857.707031 938.257812 1856.980469 937.238281 C 1856.25 936.21875 1855.546875 935.183594 1854.867188 934.128906 C 1854.191406 933.074219 1853.539062 932.007812 1852.914062 930.921875 C 1852.289062 929.835938 1851.6875 928.734375 1851.117188 927.617188 C 1850.546875 926.503906 1850 925.375 1849.484375 924.230469 C 1848.96875 923.089844 1848.480469 921.9375 1848.023438 920.769531 C 1847.5625 919.605469 1847.132812 918.425781 1846.730469 917.242188 C 1846.328125 916.054688 1845.957031 914.855469 1845.613281 913.652344 C 1845.269531 912.445312 1844.957031 911.234375 1844.671875 910.011719 C 1844.390625 908.792969 1844.136719 907.566406 1843.914062 906.332031 C 1843.6875 905.097656 1843.496094 903.859375 1843.332031 902.617188 C 1843.171875 901.375 1843.039062 900.128906 1842.9375 898.878906 C 1842.835938 897.628906 1842.765625 896.378906 1842.726562 895.128906 C 1842.6875 893.875 1842.675781 892.621094 1842.699219 891.367188 C 1842.71875 890.117188 1842.773438 888.863281 1842.855469 887.613281 C 1842.9375 886.363281 1843.054688 885.113281 1843.195312 883.871094 C 1843.339844 882.625 1843.515625 881.382812 1843.722656 880.148438 C 1843.925781 878.910156 1844.164062 877.679688 1844.429688 876.457031 C 1844.695312 875.230469 1844.988281 874.015625 1845.316406 872.804688 C 1845.640625 871.59375 1845.996094 870.390625 1846.378906 869.199219 C 1846.765625 868.007812 1847.175781 866.824219 1847.621094 865.652344 C 1848.0625 864.476562 1848.535156 863.316406 1849.03125 862.167969 C 1849.53125 861.019531 1850.058594 859.882812 1850.617188 858.757812 C 1851.171875 857.636719 1851.753906 856.527344 1852.363281 855.429688 C 1852.972656 854.335938 1853.609375 853.257812 1854.273438 852.191406 C 1854.933594 851.128906 1855.621094 850.082031 1856.335938 849.050781 C 1857.050781 848.023438 1857.789062 847.011719 1858.554688 846.015625 C 1859.316406 845.023438 1860.105469 844.050781 1860.917969 843.09375 C 1861.730469 842.140625 1862.5625 841.203125 1863.421875 840.292969 C 1864.277344 839.378906 1865.15625 838.484375 1866.058594 837.613281 C 1866.960938 836.742188 1867.882812 835.894531 1868.824219 835.070312 C 1869.769531 834.242188 1870.730469 833.441406 1871.714844 832.664062 C 1872.695312 831.886719 1873.695312 831.132812 1874.714844 830.402344 C 1875.734375 829.675781 1876.773438 828.96875 1877.828125 828.292969 C 1878.878906 827.613281 1879.949219 826.960938 1881.035156 826.335938 C 1882.121094 825.710938 1883.222656 825.113281 1884.339844 824.539062 C 1885.453125 823.96875 1886.582031 823.425781 1887.722656 822.910156 C 1888.867188 822.390625 1890.019531 821.90625 1891.1875 821.445312 C 1892.351562 820.984375 1893.527344 820.554688 1894.714844 820.152344 C 1895.902344 819.75 1897.097656 819.378906 1898.304688 819.035156 C 1899.511719 818.691406 1900.722656 818.378906 1901.945312 818.097656 C 1903.164062 817.8125 1904.390625 817.558594 1905.625 817.335938 C 1906.859375 817.113281 1908.097656 816.917969 1909.339844 816.757812 C 1910.582031 816.59375 1911.828125 816.460938 1913.078125 816.363281 C 1914.324219 816.261719 1915.578125 816.191406 1916.828125 816.148438 C 1918.082031 816.109375 1919.335938 816.101562 1920.589844 816.121094 C 1921.839844 816.144531 1923.09375 816.195312 1924.34375 816.28125 C 1925.59375 816.363281 1926.839844 816.476562 1928.085938 816.621094 C 1929.332031 816.765625 1930.570312 816.941406 1931.808594 817.144531 C 1933.042969 817.351562 1934.277344 817.585938 1935.5 817.851562 C 1945.898438 819.871094 1956.246094 822.113281 1966.550781 824.574219 C 1976.851562 827.039062 1987.097656 829.71875 1997.285156 832.621094 C 2007.46875 835.523438 2017.589844 838.640625 2027.644531 841.972656 C 2037.699219 845.304688 2047.675781 848.851562 2057.578125 852.613281 C 2067.480469 856.371094 2077.300781 860.34375 2087.03125 864.523438 C 2096.765625 868.703125 2106.402344 873.085938 2115.949219 877.679688 C 2125.492188 882.269531 2134.9375 887.066406 2144.277344 892.0625 C 2153.617188 897.054688 2162.847656 902.25 2171.964844 907.640625 C 2181.082031 913.027344 2190.082031 918.613281 2198.960938 924.386719 C 2207.839844 930.160156 2216.59375 936.121094 2225.21875 942.273438 C 2233.84375 948.421875 2242.332031 954.75 2250.6875 961.261719 C 2259.039062 967.773438 2267.25 974.460938 2275.320312 981.324219 C 2283.386719 988.1875 2291.304688 995.21875 2299.070312 1002.421875 C 2306.839844 1009.625 2314.449219 1016.988281 2321.902344 1024.515625 C 2329.355469 1032.039062 2336.644531 1039.722656 2343.769531 1047.5625 C 2350.890625 1055.398438 2357.847656 1063.386719 2364.628906 1071.523438 C 2371.410156 1079.660156 2378.015625 1087.9375 2384.445312 1096.355469 C 2390.875 1104.773438 2397.121094 1113.324219 2403.183594 1122.007812 C 2409.246094 1130.695312 2415.121094 1139.503906 2420.808594 1148.441406 C 2426.496094 1157.375 2431.988281 1166.429688 2437.289062 1175.601562 C 2442.589844 1184.773438 2447.691406 1194.050781 2452.59375 1203.441406 C 2457.496094 1212.832031 2462.195312 1222.320312 2466.691406 1231.910156 C 2471.191406 1241.5 2475.480469 1251.183594 2479.5625 1260.957031 C 2483.644531 1270.730469 2487.519531 1280.585938 2491.179688 1290.523438 C 2494.84375 1300.464844 2498.289062 1310.476562 2501.523438 1320.5625 C 2504.757812 1330.648438 2507.773438 1340.800781 2510.574219 1351.015625 C 2513.375 1361.230469 2515.953125 1371.503906 2518.316406 1381.828125 C 2520.675781 1392.152344 2522.816406 1402.523438 2524.734375 1412.941406 C 2526.648438 1423.359375 2528.34375 1433.8125 2529.816406 1444.300781 C 2531.285156 1454.792969 2532.53125 1465.308594 2533.550781 1475.851562 C 2534.570312 1486.394531 2535.367188 1496.953125 2535.9375 1507.53125 C 2536.507812 1518.109375 2536.847656 1528.691406 2536.964844 1539.285156 C 2536.945312 1549.757812 2536.695312 1560.226562 2536.21875 1570.6875 C 2535.738281 1581.152344 2535.03125 1591.597656 2534.09375 1602.03125 C 2533.15625 1612.460938 2531.992188 1622.867188 2530.597656 1633.25 C 2529.203125 1643.628906 2527.582031 1653.976562 2525.738281 1664.285156 C 2523.890625 1674.59375 2521.816406 1684.859375 2519.519531 1695.078125 C 2517.222656 1705.296875 2514.703125 1715.457031 2511.960938 1725.566406 C 2509.214844 1735.675781 2506.253906 1745.71875 2503.070312 1755.695312 C 2499.886719 1765.675781 2496.484375 1775.578125 2492.867188 1785.40625 C 2489.25 1795.238281 2485.417969 1804.980469 2481.371094 1814.640625 C 2477.324219 1824.304688 2473.070312 1833.871094 2468.605469 1843.34375 C 2464.140625 1852.820312 2459.46875 1862.191406 2454.59375 1871.460938 C 2449.71875 1880.730469 2444.640625 1889.886719 2439.363281 1898.933594 C 2434.085938 1907.980469 2428.613281 1916.910156 2422.941406 1925.714844 C 2417.273438 1934.523438 2411.414062 1943.199219 2405.363281 1951.75 C 2399.3125 1960.300781 2393.078125 1968.714844 2386.660156 1976.988281 C 2380.242188 1985.265625 2373.644531 1993.398438 2366.867188 2001.386719 L 2394.742188 2029.054688 C 2397.300781 2031.585938 2399.761719 2034.210938 2402.128906 2036.925781 C 2404.492188 2039.640625 2406.753906 2042.4375 2408.914062 2045.320312 C 2411.070312 2048.203125 2413.121094 2051.160156 2415.0625 2054.195312 C 2417 2057.226562 2418.828125 2060.328125 2420.539062 2063.496094 C 2422.25 2066.664062 2423.84375 2069.890625 2425.316406 2073.175781 C 2426.789062 2076.460938 2428.140625 2079.792969 2429.367188 2083.179688 C 2430.59375 2086.5625 2431.695312 2089.988281 2432.671875 2093.457031 C 2433.644531 2096.921875 2434.492188 2100.417969 2435.207031 2103.949219 C 2435.925781 2107.476562 2436.511719 2111.027344 2436.964844 2114.597656 C 2437.421875 2118.167969 2437.742188 2121.753906 2437.933594 2125.347656 C 2438.125 2128.945312 2438.183594 2132.542969 2438.105469 2136.140625 C 2438.03125 2139.742188 2437.824219 2143.332031 2437.484375 2146.917969 C 2437.144531 2150.503906 2436.671875 2154.070312 2436.070312 2157.621094 C 2435.464844 2161.167969 2434.734375 2164.691406 2433.871094 2168.1875 C 2433.007812 2171.683594 2432.015625 2175.140625 2430.898438 2178.5625 C 2429.78125 2181.988281 2428.539062 2185.363281 2427.171875 2188.695312 C 2425.804688 2192.023438 2424.316406 2195.300781 2422.707031 2198.523438 C 2421.097656 2201.742188 2419.371094 2204.898438 2417.53125 2207.992188 C 2415.6875 2211.085938 2413.734375 2214.109375 2411.667969 2217.058594 C 2409.605469 2220.007812 2407.433594 2222.878906 2405.15625 2225.667969 C 2402.878906 2228.457031 2400.503906 2231.160156 2398.027344 2233.773438 C 2395.550781 2236.386719 2392.984375 2238.90625 2390.320312 2241.332031 C 2387.660156 2243.753906 2384.910156 2246.078125 2382.078125 2248.300781 C 2379.246094 2250.523438 2376.335938 2252.636719 2373.34375 2254.644531 C 2370.355469 2256.652344 2367.296875 2258.546875 2364.167969 2260.328125 C 2361.039062 2262.109375 2357.847656 2263.773438 2354.597656 2265.316406 C 2351.34375 2266.863281 2348.039062 2268.289062 2344.683594 2269.589844 C 2341.328125 2270.894531 2337.925781 2272.070312 2334.484375 2273.121094 C 2331.039062 2274.171875 2327.5625 2275.09375 2324.050781 2275.890625 C 2320.539062 2276.6875 2317.003906 2277.351562 2313.441406 2277.882812 C 2309.878906 2278.417969 2306.304688 2278.820312 2302.714844 2279.089844 C 2299.125 2279.359375 2295.527344 2279.496094 2291.929688 2279.503906 Z M 2291.929688 2279.503906 "/><path style=" stroke:none;fill-rule:nonzero;fill:#1e40af;fill-opacity:1;" d="M 1184.152344 1896.632812 L 603.308594 1896.632812 C 599.546875 1896.632812 595.792969 1896.496094 592.039062 1896.21875 C 588.289062 1895.945312 584.550781 1895.53125 580.832031 1894.980469 C 577.109375 1894.433594 573.414062 1893.746094 569.742188 1892.921875 C 566.070312 1892.097656 562.4375 1891.144531 558.835938 1890.050781 C 555.234375 1888.960938 551.679688 1887.738281 548.171875 1886.386719 C 544.660156 1885.035156 541.207031 1883.554688 537.804688 1881.945312 C 534.402344 1880.339844 531.066406 1878.609375 527.792969 1876.757812 C 524.519531 1874.902344 521.316406 1872.933594 518.1875 1870.84375 C 515.0625 1868.753906 512.011719 1866.550781 509.046875 1864.238281 C 506.082031 1861.925781 503.203125 1859.503906 500.417969 1856.980469 C 497.628906 1854.453125 494.9375 1851.828125 492.34375 1849.105469 C 489.75 1846.382812 487.257812 1843.566406 484.871094 1840.65625 C 482.484375 1837.75 480.207031 1834.757812 478.042969 1831.683594 C 475.875 1828.609375 473.824219 1825.457031 471.890625 1822.230469 C 469.957031 1819.003906 468.140625 1815.710938 466.449219 1812.351562 C 464.757812 1808.992188 463.195312 1805.574219 461.753906 1802.097656 C 460.3125 1798.625 459.003906 1795.101562 457.824219 1791.527344 C 456.644531 1787.957031 455.597656 1784.347656 454.683594 1780.695312 C 453.769531 1777.046875 452.988281 1773.371094 452.347656 1769.664062 C 451.703125 1765.957031 451.199219 1762.230469 450.828125 1758.488281 C 450.460938 1754.746094 450.230469 1750.992188 450.136719 1747.230469 C 450.046875 1743.472656 450.09375 1739.710938 450.277344 1735.957031 C 450.460938 1732.199219 450.785156 1728.453125 451.246094 1724.71875 C 451.707031 1720.984375 452.304688 1717.273438 453.039062 1713.585938 C 453.773438 1709.894531 454.640625 1706.238281 455.644531 1702.613281 C 456.648438 1698.988281 457.785156 1695.402344 459.054688 1691.863281 C 460.320312 1688.320312 461.71875 1684.832031 463.242188 1681.390625 C 464.769531 1677.953125 466.417969 1674.574219 468.191406 1671.257812 C 469.964844 1667.941406 471.859375 1664.691406 473.871094 1661.515625 C 475.886719 1658.339844 478.015625 1655.238281 480.253906 1652.21875 C 482.496094 1649.195312 484.847656 1646.261719 487.304688 1643.414062 C 489.761719 1640.566406 492.324219 1637.8125 494.984375 1635.15625 L 530.617188 1599.625 C 523.085938 1590.910156 515.757812 1582.035156 508.625 1572.996094 C 501.492188 1563.953125 494.5625 1554.761719 487.839844 1545.410156 C 481.117188 1536.0625 474.605469 1526.570312 468.304688 1516.929688 C 462.003906 1507.292969 455.917969 1497.519531 450.054688 1487.609375 C 444.1875 1477.699219 438.546875 1467.667969 433.125 1457.507812 C 427.707031 1447.347656 422.515625 1437.070312 417.554688 1426.679688 C 412.59375 1416.285156 407.867188 1405.789062 403.371094 1395.1875 C 398.878906 1384.585938 394.621094 1373.890625 390.605469 1363.097656 C 386.585938 1352.308594 382.808594 1341.433594 379.277344 1330.472656 C 375.742188 1319.511719 372.453125 1308.480469 369.410156 1297.375 C 366.371094 1286.269531 363.574219 1275.101562 361.03125 1263.871094 C 358.484375 1252.640625 356.191406 1241.359375 354.148438 1230.027344 C 352.105469 1218.695312 350.3125 1207.320312 348.777344 1195.910156 C 347.238281 1184.496094 345.957031 1173.054688 344.929688 1161.585938 C 343.902344 1150.117188 343.128906 1138.632812 342.613281 1127.128906 C 342.097656 1115.625 341.839844 1104.113281 341.835938 1092.601562 C 342.167969 1079.136719 342.835938 1065.6875 343.828125 1052.253906 C 344.824219 1038.820312 346.144531 1025.421875 347.796875 1012.050781 C 349.449219 998.683594 351.425781 985.363281 353.726562 972.09375 C 356.03125 958.824219 358.65625 945.617188 361.609375 932.472656 C 364.558594 919.332031 367.828125 906.269531 371.417969 893.289062 C 375.011719 880.304688 378.917969 867.417969 383.136719 854.628906 C 387.359375 841.835938 391.890625 829.15625 396.734375 816.589844 C 401.578125 804.019531 406.726562 791.578125 412.179688 779.261719 C 417.632812 766.945312 423.382812 754.769531 429.429688 742.734375 C 435.480469 730.699219 441.820312 718.820312 448.453125 707.097656 C 455.082031 695.371094 461.996094 683.816406 469.195312 672.433594 C 476.390625 661.046875 483.863281 649.84375 491.609375 638.824219 C 499.355469 627.804688 507.367188 616.984375 515.644531 606.355469 C 523.917969 595.730469 532.449219 585.3125 541.238281 575.105469 C 550.023438 564.894531 559.054688 554.90625 568.332031 545.140625 C 577.609375 535.375 587.117188 525.839844 596.859375 516.542969 C 606.605469 507.242188 616.570312 498.183594 626.757812 489.371094 C 636.941406 480.5625 647.339844 472.003906 657.945312 463.699219 C 668.550781 455.398438 679.355469 447.359375 690.355469 439.585938 C 701.355469 431.8125 712.539062 424.3125 723.90625 417.085938 C 735.273438 409.863281 746.8125 402.917969 758.519531 396.257812 C 770.226562 389.597656 782.089844 383.230469 794.109375 377.152344 C 806.128906 371.070312 818.289062 365.289062 830.59375 359.808594 C 842.894531 354.324219 855.324219 349.144531 867.882812 344.269531 C 880.4375 339.398438 893.105469 334.832031 905.886719 330.578125 C 918.667969 326.328125 931.542969 322.386719 944.515625 318.765625 C 957.492188 315.144531 970.542969 311.839844 983.679688 308.855469 C 996.816406 305.875 1010.015625 303.214844 1023.28125 300.878906 C 1036.546875 298.542969 1049.859375 296.53125 1063.222656 294.847656 C 1076.585938 293.164062 1089.984375 291.808594 1103.414062 290.78125 C 1116.84375 289.753906 1130.292969 289.054688 1143.757812 288.6875 C 1157.222656 288.316406 1170.6875 288.277344 1184.152344 288.570312 C 1197.617188 288.277344 1211.085938 288.316406 1224.546875 288.6875 C 1238.011719 289.054688 1251.460938 289.753906 1264.890625 290.78125 C 1278.320312 291.808594 1291.71875 293.164062 1305.082031 294.847656 C 1318.445312 296.53125 1331.757812 298.542969 1345.023438 300.878906 C 1358.289062 303.214844 1371.488281 305.875 1384.625 308.855469 C 1397.761719 311.839844 1410.8125 315.144531 1423.789062 318.765625 C 1436.761719 322.386719 1449.636719 326.328125 1462.417969 330.578125 C 1475.199219 334.832031 1487.867188 339.398438 1500.421875 344.269531 C 1512.980469 349.144531 1525.410156 354.324219 1537.710938 359.808594 C 1550.015625 365.289062 1562.175781 371.070312 1574.195312 377.148438 C 1586.214844 383.230469 1598.078125 389.597656 1609.785156 396.257812 C 1621.492188 402.917969 1633.03125 409.863281 1644.398438 417.085938 C 1655.765625 424.3125 1666.949219 431.8125 1677.949219 439.585938 C 1688.949219 447.359375 1699.753906 455.398438 1710.359375 463.699219 C 1720.964844 472.003906 1731.363281 480.558594 1741.546875 489.371094 C 1751.734375 498.183594 1761.699219 507.242188 1771.445312 516.542969 C 1781.1875 525.839844 1790.695312 535.375 1799.972656 545.140625 C 1809.25 554.90625 1818.28125 564.894531 1827.066406 575.105469 C 1835.855469 585.3125 1844.386719 595.730469 1852.660156 606.355469 C 1860.9375 616.984375 1868.949219 627.804688 1876.695312 638.824219 C 1884.441406 649.84375 1891.914062 661.046875 1899.109375 672.433594 C 1906.308594 683.816406 1913.222656 695.371094 1919.855469 707.097656 C 1926.484375 718.820312 1932.824219 730.699219 1938.875 742.734375 C 1944.921875 754.769531 1950.675781 766.945312 1956.125 779.261719 C 1961.578125 791.578125 1966.726562 804.019531 1971.570312 816.589844 C 1976.414062 829.15625 1980.945312 841.835938 1985.167969 854.628906 C 1989.390625 867.417969 1993.296875 880.304688 1996.886719 893.289062 C 2000.476562 906.269531 2003.746094 919.332031 2006.695312 932.472656 C 2009.648438 945.617188 2012.273438 958.824219 2014.578125 972.09375 C 2016.878906 985.363281 2018.859375 998.683594 2020.507812 1012.050781 C 2022.160156 1025.421875 2023.480469 1038.820312 2024.476562 1052.253906 C 2025.46875 1065.6875 2026.136719 1079.136719 2026.46875 1092.601562 C 2026.136719 1106.066406 2025.46875 1119.515625 2024.476562 1132.945312 C 2023.480469 1146.378906 2022.160156 1159.78125 2020.507812 1173.148438 C 2018.859375 1186.515625 2016.878906 1199.835938 2014.578125 1213.105469 C 2012.273438 1226.378906 2009.648438 1239.585938 2006.695312 1252.726562 C 2003.746094 1265.867188 2000.476562 1278.929688 1996.886719 1291.914062 C 1993.296875 1304.894531 1989.390625 1317.78125 1985.167969 1330.570312 C 1980.945312 1343.363281 1976.414062 1356.042969 1971.570312 1368.609375 C 1966.726562 1381.179688 1961.578125 1393.621094 1956.125 1405.9375 C 1950.671875 1418.253906 1944.921875 1430.429688 1938.875 1442.464844 C 1932.824219 1454.5 1926.484375 1466.378906 1919.851562 1478.105469 C 1913.222656 1489.828125 1906.308594 1501.382812 1899.109375 1512.769531 C 1891.914062 1524.152344 1884.441406 1535.355469 1876.695312 1546.375 C 1868.949219 1557.394531 1860.9375 1568.214844 1852.660156 1578.84375 C 1844.386719 1589.46875 1835.855469 1599.886719 1827.066406 1610.097656 C 1818.28125 1620.304688 1809.25 1630.292969 1799.972656 1640.058594 C 1790.695312 1649.824219 1781.1875 1659.359375 1771.445312 1668.660156 C 1761.699219 1677.960938 1751.734375 1687.015625 1741.546875 1695.828125 C 1731.363281 1704.640625 1720.964844 1713.195312 1710.359375 1721.5 C 1699.753906 1729.800781 1688.949219 1737.839844 1677.949219 1745.613281 C 1666.949219 1753.386719 1655.765625 1760.886719 1644.398438 1768.113281 C 1633.03125 1775.339844 1621.492188 1782.28125 1609.785156 1788.941406 C 1598.078125 1795.601562 1586.214844 1801.972656 1574.195312 1808.050781 C 1562.175781 1814.128906 1550.015625 1819.910156 1537.710938 1825.394531 C 1525.410156 1830.875 1512.980469 1836.054688 1500.421875 1840.929688 C 1487.867188 1845.804688 1475.199219 1850.367188 1462.417969 1854.621094 C 1449.636719 1858.875 1436.761719 1862.8125 1423.789062 1866.433594 C 1410.8125 1870.058594 1397.761719 1873.359375 1384.625 1876.34375 C 1371.488281 1879.324219 1358.289062 1881.984375 1345.023438 1884.320312 C 1331.757812 1886.660156 1318.445312 1888.667969 1305.082031 1890.351562 C 1291.71875 1892.035156 1278.320312 1893.390625 1264.890625 1894.417969 C 1251.460938 1895.449219 1238.011719 1896.144531 1224.546875 1896.515625 C 1211.085938 1896.882812 1197.617188 1896.921875 1184.152344 1896.632812 Z M 1184.152344 441.71875 C 1173.191406 441.425781 1162.230469 441.398438 1151.269531 441.644531 C 1140.308594 441.886719 1129.359375 442.398438 1118.421875 443.179688 C 1107.484375 443.957031 1096.574219 445.003906 1085.6875 446.320312 C 1074.800781 447.632812 1063.953125 449.214844 1053.148438 451.058594 C 1042.339844 452.90625 1031.582031 455.015625 1020.878906 457.386719 C 1010.171875 459.757812 999.53125 462.390625 988.957031 465.285156 C 978.378906 468.179688 967.882812 471.332031 957.460938 474.738281 C 947.039062 478.148438 936.707031 481.808594 926.464844 485.722656 C 916.222656 489.636719 906.082031 493.796875 896.042969 498.210938 C 886.007812 502.621094 876.082031 507.273438 866.273438 512.171875 C 856.460938 517.066406 846.777344 522.203125 837.21875 527.574219 C 827.660156 532.945312 818.238281 538.546875 808.953125 544.378906 C 799.667969 550.214844 790.535156 556.269531 781.546875 562.550781 C 772.558594 568.832031 763.730469 575.328125 755.058594 582.039062 C 746.390625 588.753906 737.890625 595.675781 729.558594 602.804688 C 721.230469 609.933594 713.078125 617.261719 705.109375 624.789062 C 697.136719 632.320312 689.355469 640.039062 681.761719 647.945312 C 674.167969 655.855469 666.773438 663.949219 659.574219 672.21875 C 652.378906 680.492188 645.386719 688.933594 638.605469 697.550781 C 631.820312 706.164062 625.253906 714.9375 618.898438 723.875 C 612.546875 732.8125 606.414062 741.898438 600.507812 751.132812 C 594.597656 760.371094 588.921875 769.746094 583.472656 779.261719 C 578.023438 788.777344 572.808594 798.417969 567.832031 808.1875 C 562.855469 817.957031 558.121094 827.84375 553.628906 837.847656 C 549.136719 847.847656 544.890625 857.953125 540.894531 868.164062 C 536.894531 878.375 533.148438 888.675781 529.65625 899.066406 C 526.164062 909.460938 522.929688 919.933594 519.949219 930.484375 C 516.96875 941.039062 514.25 951.65625 511.789062 962.339844 C 509.328125 973.027344 507.132812 983.765625 505.199219 994.558594 C 503.265625 1005.351562 501.597656 1016.183594 500.195312 1027.058594 C 498.789062 1037.933594 497.65625 1048.835938 496.785156 1059.765625 C 495.917969 1070.695312 495.316406 1081.640625 494.984375 1092.601562 C 495.019531 1103.179688 495.320312 1113.753906 495.886719 1124.316406 C 496.457031 1134.882812 497.289062 1145.425781 498.390625 1155.949219 C 499.492188 1166.472656 500.855469 1176.960938 502.484375 1187.414062 C 504.113281 1197.867188 506.007812 1208.273438 508.160156 1218.632812 C 510.316406 1228.988281 512.730469 1239.285156 515.40625 1249.523438 C 518.078125 1259.761719 521.007812 1269.921875 524.195312 1280.011719 C 527.382812 1290.097656 530.824219 1300.101562 534.515625 1310.015625 C 538.207031 1319.929688 542.144531 1329.746094 546.332031 1339.464844 C 550.519531 1349.179688 554.949219 1358.785156 559.621094 1368.277344 C 564.292969 1377.769531 569.199219 1387.140625 574.34375 1396.382812 C 579.488281 1405.628906 584.863281 1414.738281 590.464844 1423.714844 C 596.070312 1432.6875 601.898438 1441.515625 607.945312 1450.195312 C 613.996094 1458.875 620.261719 1467.394531 626.738281 1475.761719 C 633.21875 1484.125 639.90625 1492.320312 646.796875 1500.34375 C 653.691406 1508.371094 660.78125 1516.21875 668.070312 1523.886719 C 675.359375 1531.558594 682.835938 1539.039062 690.503906 1546.328125 C 691.410156 1547.210938 692.296875 1548.113281 693.164062 1549.039062 C 694.027344 1549.964844 694.867188 1550.910156 695.683594 1551.875 C 696.5 1552.84375 697.292969 1553.828125 698.0625 1554.835938 C 698.828125 1555.84375 699.574219 1556.867188 700.289062 1557.910156 C 701.007812 1558.953125 701.699219 1560.011719 702.363281 1561.089844 C 703.027344 1562.167969 703.664062 1563.261719 704.277344 1564.367188 C 704.886719 1565.476562 705.46875 1566.601562 706.023438 1567.738281 C 706.578125 1568.875 707.105469 1570.027344 707.601562 1571.191406 C 708.101562 1572.355469 708.570312 1573.53125 709.007812 1574.71875 C 709.449219 1575.90625 709.859375 1577.101562 710.238281 1578.308594 C 710.617188 1579.515625 710.96875 1580.734375 711.289062 1581.957031 C 711.609375 1583.183594 711.898438 1584.414062 712.15625 1585.652344 C 712.414062 1586.894531 712.640625 1588.136719 712.839844 1589.386719 C 713.035156 1590.640625 713.203125 1591.894531 713.335938 1593.152344 C 713.472656 1594.410156 713.574219 1595.671875 713.648438 1596.933594 C 713.71875 1598.199219 713.761719 1599.464844 713.769531 1600.730469 C 713.777344 1601.996094 713.757812 1603.261719 713.703125 1604.527344 C 713.652344 1605.789062 713.566406 1607.054688 713.449219 1608.3125 C 713.335938 1609.574219 713.1875 1610.832031 713.007812 1612.085938 C 712.832031 1613.335938 712.621094 1614.585938 712.382812 1615.828125 C 712.140625 1617.070312 711.871094 1618.308594 711.570312 1619.535156 C 711.269531 1620.765625 710.9375 1621.988281 710.574219 1623.199219 C 710.210938 1624.414062 709.820312 1625.617188 709.398438 1626.808594 C 708.976562 1628.003906 708.527344 1629.1875 708.046875 1630.355469 C 707.566406 1631.527344 707.054688 1632.6875 706.519531 1633.832031 C 705.980469 1634.980469 705.414062 1636.109375 704.820312 1637.230469 C 704.226562 1638.347656 703.605469 1639.449219 702.957031 1640.535156 C 702.308594 1641.625 701.632812 1642.695312 700.933594 1643.746094 C 700.230469 1644.800781 699.503906 1645.835938 698.75 1646.855469 C 697.996094 1647.871094 697.21875 1648.871094 696.417969 1649.847656 C 695.613281 1650.828125 694.789062 1651.785156 693.9375 1652.722656 C 693.089844 1653.660156 692.214844 1654.578125 691.320312 1655.472656 L 603.308594 1743.480469 L 1184.152344 1743.480469 C 1195.113281 1743.777344 1206.074219 1743.800781 1217.035156 1743.558594 C 1228 1743.3125 1238.949219 1742.800781 1249.882812 1742.023438 C 1260.820312 1741.242188 1271.730469 1740.195312 1282.617188 1738.882812 C 1293.503906 1737.566406 1304.351562 1735.988281 1315.15625 1734.140625 C 1325.964844 1732.296875 1336.722656 1730.1875 1347.425781 1727.8125 C 1358.132812 1725.441406 1368.773438 1722.808594 1379.347656 1719.914062 C 1389.925781 1717.019531 1400.421875 1713.871094 1410.84375 1710.460938 C 1421.265625 1707.054688 1431.597656 1703.390625 1441.839844 1699.476562 C 1452.082031 1695.5625 1462.222656 1691.402344 1472.261719 1686.992188 C 1482.296875 1682.582031 1492.222656 1677.925781 1502.03125 1673.03125 C 1511.84375 1668.132812 1521.527344 1662.996094 1531.085938 1657.625 C 1540.644531 1652.253906 1550.066406 1646.652344 1559.351562 1640.820312 C 1568.636719 1634.988281 1577.769531 1628.929688 1586.757812 1622.648438 C 1595.746094 1616.371094 1604.574219 1609.875 1613.246094 1603.160156 C 1621.914062 1596.449219 1630.414062 1589.527344 1638.746094 1582.398438 C 1647.074219 1575.269531 1655.226562 1567.9375 1663.195312 1560.410156 C 1671.167969 1552.882812 1678.949219 1545.164062 1686.542969 1537.253906 C 1694.136719 1529.34375 1701.53125 1521.253906 1708.730469 1512.980469 C 1715.925781 1504.707031 1722.917969 1496.265625 1729.699219 1487.652344 C 1736.484375 1479.035156 1743.050781 1470.261719 1749.40625 1461.324219 C 1755.757812 1452.390625 1761.890625 1443.300781 1767.796875 1434.066406 C 1773.707031 1424.828125 1779.382812 1415.453125 1784.832031 1405.9375 C 1790.28125 1396.425781 1795.496094 1386.78125 1800.472656 1377.011719 C 1805.449219 1367.242188 1810.183594 1357.355469 1814.675781 1347.355469 C 1819.167969 1337.351562 1823.414062 1327.246094 1827.410156 1317.035156 C 1831.410156 1306.828125 1835.15625 1296.523438 1838.648438 1286.132812 C 1842.140625 1275.738281 1845.375 1265.265625 1848.355469 1254.714844 C 1851.335938 1244.164062 1854.054688 1233.542969 1856.515625 1222.859375 C 1858.976562 1212.171875 1861.171875 1201.433594 1863.105469 1190.640625 C 1865.039062 1179.847656 1866.707031 1169.015625 1868.109375 1158.140625 C 1869.515625 1147.265625 1870.648438 1136.363281 1871.519531 1125.433594 C 1872.386719 1114.503906 1872.988281 1103.558594 1873.320312 1092.601562 C 1872.988281 1081.640625 1872.386719 1070.695312 1871.519531 1059.765625 C 1870.648438 1048.835938 1869.515625 1037.933594 1868.109375 1027.058594 C 1866.707031 1016.183594 1865.039062 1005.351562 1863.105469 994.558594 C 1861.171875 983.765625 1858.976562 973.027344 1856.515625 962.339844 C 1854.054688 951.65625 1851.335938 941.039062 1848.355469 930.484375 C 1845.375 919.933594 1842.140625 909.460938 1838.648438 899.066406 C 1835.15625 888.675781 1831.410156 878.375 1827.410156 868.164062 C 1823.414062 857.953125 1819.167969 847.847656 1814.675781 837.847656 C 1810.183594 827.84375 1805.449219 817.957031 1800.472656 808.1875 C 1795.496094 798.417969 1790.28125 788.777344 1784.832031 779.261719 C 1779.386719 769.746094 1773.707031 760.371094 1767.796875 751.132812 C 1761.890625 741.898438 1755.757812 732.8125 1749.40625 723.875 C 1743.050781 714.9375 1736.484375 706.164062 1729.699219 697.550781 C 1722.917969 688.933594 1715.925781 680.492188 1708.730469 672.21875 C 1701.53125 663.949219 1694.136719 655.855469 1686.542969 647.945312 C 1678.949219 640.039062 1671.167969 632.320312 1663.195312 624.789062 C 1655.226562 617.261719 1647.074219 609.933594 1638.746094 602.804688 C 1630.414062 595.675781 1621.914062 588.753906 1613.246094 582.039062 C 1604.574219 575.328125 1595.746094 568.832031 1586.757812 562.550781 C 1577.769531 556.269531 1568.636719 550.210938 1559.351562 544.378906 C 1550.066406 538.546875 1540.644531 532.945312 1531.085938 527.574219 C 1521.527344 522.203125 1511.84375 517.066406 1502.03125 512.171875 C 1492.222656 507.273438 1482.296875 502.621094 1472.261719 498.210938 C 1462.222656 493.796875 1452.082031 489.636719 1441.839844 485.722656 C 1431.597656 481.808594 1421.265625 478.148438 1410.84375 474.738281 C 1400.421875 471.332031 1389.925781 468.179688 1379.347656 465.285156 C 1368.773438 462.390625 1358.132812 459.757812 1347.425781 457.386719 C 1336.722656 455.015625 1325.964844 452.90625 1315.15625 451.058594 C 1304.351562 449.214844 1293.503906 447.632812 1282.617188 446.320312 C 1271.730469 445.003906 1260.820312 443.957031 1249.882812 443.179688 C 1238.949219 442.398438 1228 441.886719 1217.035156 441.644531 C 1206.074219 441.398438 1195.113281 441.425781 1184.152344 441.71875 Z M 1184.152344 441.71875 "/><g clip-rule="nonzero" clip-path="url(#4d049e19e1)"><path style=" stroke:none;fill-rule:nonzero;fill:#1e40af;fill-opacity:1;" d="M 1237.667969 1257.179688 L 1128.824219 1366.019531 C 1084.824219 1410.019531 1026.75 1431.929688 968.679688 1431.929688 C 910.785156 1431.929688 852.710938 1410.019531 808.710938 1366.019531 C 764.710938 1321.84375 742.621094 1263.949219 742.621094 1205.875 C 742.621094 1147.800781 764.710938 1089.90625 808.710938 1045.726562 L 917.554688 936.886719 L 948.546875 968.058594 L 839.707031 1076.902344 C 804.257812 1112.351562 786.621094 1159.023438 786.621094 1205.875 C 786.621094 1252.722656 804.257812 1299.398438 839.707031 1334.847656 C 875.15625 1370.296875 922.007812 1388.109375 968.679688 1388.109375 C 1015.527344 1388.109375 1062.199219 1370.296875 1097.648438 1334.847656 L 1175.496094 1257.179688 L 1153.765625 1235.445312 L 1076.09375 1313.113281 C 1017.132812 1372.078125 920.402344 1372.078125 861.4375 1313.113281 C 802.476562 1254.328125 802.476562 1157.597656 861.4375 1098.636719 L 970.28125 989.792969 L 1132.921875 1152.433594 L 1184.9375 1204.269531 L 1206.671875 1226.003906 L 1230.183594 1249.519531 Z M 1237.667969 1257.179688 "/></g><g clip-rule="nonzero" clip-path="url(#1bc751d65b)"><path style=" stroke:none;fill-rule:nonzero;fill:#1e40af;fill-opacity:1;" d="M 1377.683594 797.046875 C 1421.683594 841.046875 1443.59375 899.121094 1443.59375 957.015625 C 1443.59375 1015.089844 1421.683594 1073.160156 1377.683594 1117.160156 L 1268.839844 1226.003906 L 1237.667969 1195.007812 L 1346.507812 1085.988281 C 1381.957031 1050.539062 1399.773438 1003.867188 1399.773438 957.015625 C 1399.773438 910.34375 1381.957031 863.492188 1346.507812 828.042969 C 1311.058594 792.59375 1264.386719 774.957031 1217.539062 774.957031 C 1170.6875 774.957031 1124.015625 792.59375 1088.566406 828.042969 L 1010.71875 905.890625 L 1032.453125 927.621094 L 1110.296875 849.777344 C 1169.261719 790.8125 1265.992188 790.8125 1324.777344 849.777344 C 1383.738281 908.738281 1383.738281 1005.46875 1324.777344 1064.433594 L 1215.933594 1173.273438 L 1059.886719 1017.226562 L 1001.457031 958.617188 L 979.722656 936.886719 L 948.546875 905.890625 L 1057.390625 797.046875 C 1101.570312 753.046875 1159.464844 730.957031 1217.539062 730.957031 C 1275.609375 730.957031 1333.503906 753.046875 1377.683594 797.046875 Z M 1377.683594 797.046875 "/></g></g></svg>