<svg xmlns="http://www.w3.org/2000/svg" xmlns:xlink="http://www.w3.org/1999/xlink" width="3780" zoomAndPan="magnify" viewBox="0 0 2835 2834.999876" height="3780" preserveAspectRatio="xMidYMid meet" version="1.2"><defs><clipPath id="a8d7eedd3d"><path d="M 445.085938 570 L 2389.835938 570 L 2389.835938 2323 L 445.085938 2323 Z M 445.085938 570 "/></clipPath></defs><g id="42cd10d913"><g clip-rule="nonzero" clip-path="url(#a8d7eedd3d)"><path style=" stroke:none;fill-rule:nonzero;fill:#1e40af;fill-opacity:1;" d="M 866.808594 1538.820312 C 804.582031 1476.503906 703.542969 1476.503906 641.359375 1538.820312 C 579.042969 1601.050781 579.042969 1702.085938 641.359375 1764.269531 C 703.589844 1826.589844 804.625 1826.589844 866.808594 1764.269531 C 929.171875 1702.042969 929.171875 1601.003906 866.808594 1538.820312 Z M 1063.308594 2322.542969 L 1063.308594 1981.378906 C 1063.308594 1912.191406 1006.65625 1855.582031 937.601562 1855.582031 L 570.566406 1855.582031 C 501.515625 1855.582031 444.863281 1912.234375 444.863281 1981.378906 L 444.863281 2322.542969 L 595.457031 2322.542969 L 595.457031 2080.632812 C 595.457031 2051.28125 639.976562 2051.28125 639.976562 2080.632812 L 639.976562 2322.542969 L 868.105469 2322.542969 L 868.105469 2080.632812 C 868.105469 2051.28125 912.757812 2051.28125 912.757812 2080.632812 L 912.757812 2322.542969 Z M 1529.910156 1538.820312 C 1467.59375 1476.503906 1366.644531 1476.503906 1304.328125 1538.820312 C 1242.097656 1601.050781 1242.097656 1702.085938 1304.328125 1764.269531 C 1366.644531 1826.589844 1467.59375 1826.589844 1529.910156 1764.269531 C 1592.273438 1702.042969 1592.273438 1601.003906 1529.910156 1538.820312 Z M 1417.410156 1855.585938 L 1233.667969 1855.585938 C 1164.480469 1855.585938 1107.960938 1912.238281 1107.960938 1981.378906 L 1107.960938 2322.542969 L 1258.425781 2322.542969 L 1258.425781 2080.632812 C 1258.425781 2051.28125 1303.078125 2051.28125 1303.078125 2080.632812 L 1303.078125 2322.542969 L 1531.203125 2322.542969 L 1531.203125 2080.632812 C 1531.203125 2051.28125 1575.855469 2051.28125 1575.855469 2080.632812 L 1575.855469 2322.542969 L 1726.453125 2322.542969 L 1726.453125 1981.378906 C 1726.453125 1912.191406 1669.800781 1855.585938 1600.660156 1855.585938 Z M 2193.011719 1538.820312 C 2130.691406 1476.503906 2029.65625 1476.503906 1967.425781 1538.820312 C 1905.109375 1601.050781 1905.109375 1702.085938 1967.425781 1764.269531 C 2029.65625 1826.589844 2130.691406 1826.589844 2193.011719 1764.269531 C 2255.238281 1702.042969 2255.238281 1601.003906 2193.011719 1538.820312 Z M 2080.375 1855.585938 L 1896.632812 1855.585938 C 1827.582031 1855.585938 1770.929688 1912.238281 1770.929688 1981.378906 L 1770.929688 2322.542969 L 1921.523438 2322.542969 L 1921.523438 2080.632812 C 1921.523438 2051.28125 1966.179688 2051.28125 1966.179688 2080.632812 L 1966.179688 2322.542969 L 2194.304688 2322.542969 L 2194.304688 2080.632812 C 2194.304688 2051.28125 2238.957031 2051.28125 2238.957031 2080.632812 L 2238.957031 2322.542969 L 2389.417969 2322.542969 L 2389.417969 1981.378906 C 2389.417969 1912.191406 2332.765625 1855.585938 2263.714844 1855.585938 Z M 1170.816406 1142.390625 C 1108.585938 1080.160156 1007.550781 1080.160156 945.363281 1142.390625 C 883.046875 1204.707031 883.046875 1305.742188 945.363281 1367.972656 C 1007.59375 1430.289062 1108.632812 1430.289062 1170.816406 1367.972656 C 1233.132812 1305.742188 1233.132812 1204.75 1170.816406 1142.390625 Z M 1164.347656 1429.441406 C 1133.386719 1448.402344 1096.945312 1459.285156 1058 1459.285156 C 1019.191406 1459.285156 982.746094 1448.402344 951.789062 1429.441406 L 874.527344 1429.441406 C 847.71875 1429.441406 822.558594 1437.917969 801.546875 1452.949219 C 966.0625 1492.160156 1014.105469 1704.941406 881.441406 1811.066406 L 937.601562 1811.066406 C 1000.054688 1811.066406 1055.816406 1845.191406 1085.570312 1897.292969 C 1115.410156 1845.191406 1171.171875 1811.066406 1233.621094 1811.066406 L 1289.785156 1811.066406 C 1171.304688 1716.226562 1194.324219 1530.480469 1330.644531 1466.601562 C 1307.269531 1443.09375 1275.777344 1429.441406 1241.609375 1429.441406 Z M 1595.304688 1384.921875 C 1537.136719 1314.21875 1533.078125 1213.226562 1585.714844 1138.242188 L 1519.828125 1138.242188 L 1519.828125 1222.460938 C 1519.828125 1234.863281 1509.835938 1244.855469 1497.570312 1244.855469 L 1335.597656 1244.855469 C 1323.195312 1244.855469 1313.203125 1234.863281 1313.203125 1222.460938 L 1313.203125 1138.242188 L 1225.058594 1137.839844 C 1277.917969 1212.960938 1273.992188 1314.128906 1215.691406 1384.921875 C 1257.175781 1384.921875 1284.609375 1384.523438 1323.820312 1406.289062 C 1344.296875 1417.53125 1362.140625 1433.101562 1376.414062 1451.433594 C 1396.128906 1447.507812 1416.605469 1446.394531 1436.992188 1448.402344 C 1469.109375 1408.699219 1517.417969 1384.921875 1569.386719 1384.921875 Z M 1859.207031 1429.441406 C 1828.25 1448.402344 1791.804688 1459.285156 1752.863281 1459.285156 C 1713.917969 1459.285156 1677.609375 1448.402344 1646.648438 1429.441406 L 1569.386719 1429.441406 C 1538.785156 1429.441406 1510.105469 1440.550781 1487.578125 1459.910156 C 1635.765625 1514.421875 1669.175781 1711.277344 1544.496094 1811.066406 L 1600.660156 1811.066406 C 1663.109375 1811.066406 1718.871094 1845.191406 1748.714844 1897.292969 C 1778.421875 1845.191406 1834.316406 1811.066406 1896.679688 1811.066406 L 1952.929688 1811.066406 C 1825.972656 1709.535156 1863.398438 1508.621094 2015.78125 1457.902344 C 1993.65625 1439.703125 1965.953125 1429.441406 1936.511719 1429.441406 Z M 1626.398438 1095.105469 C 1672.164062 1058.792969 1732.253906 1043.402344 1791.671875 1054.777344 C 1796.621094 966.410156 1791.535156 841.195312 1789.664062 737.035156 C 1652.359375 715.667969 1519.335938 660.042969 1416.515625 570.511719 C 1313.695312 660.042969 1180.671875 715.667969 1043.503906 737.035156 C 1041.585938 840.078125 1036.542969 964.136719 1041.226562 1051.878906 C 1105.195312 1046.570312 1165.148438 1071.238281 1206.769531 1115.355469 L 1206.769531 954.007812 C 1206.769531 941.609375 1216.761719 931.617188 1229.027344 931.617188 L 1313.25 931.617188 L 1313.25 847.394531 C 1313.25 835.128906 1323.242188 825.136719 1335.640625 825.136719 L 1497.613281 825.136719 C 1509.882812 825.136719 1519.875 835.128906 1519.875 847.394531 L 1519.875 931.617188 L 1604.09375 931.617188 C 1616.496094 931.617188 1626.488281 941.609375 1626.488281 954.007812 L 1626.488281 1095.105469 Z M 1752.863281 1095.730469 C 1664.847656 1095.730469 1593.433594 1167.191406 1593.433594 1255.160156 C 1593.433594 1343.304688 1664.894531 1414.722656 1752.863281 1414.722656 C 1841.007812 1414.722656 1912.425781 1343.257812 1912.425781 1255.160156 C 1912.425781 1167.191406 1841.007812 1095.730469 1752.863281 1095.730469 Z M 1752.863281 1095.730469 "/></g><path style=" stroke:none;fill-rule:evenodd;fill:#1e40af;fill-opacity:1;" d="M 1428.648438 527.601562 C 1421.824219 521.132812 1411.207031 521.132812 1404.382812 527.601562 C 1300.179688 624.710938 1159.574219 681.722656 1019.234375 700.054688 C 1010.492188 701.214844 1003.9375 708.664062 1003.800781 717.496094 C 1003.042969 776.558594 1001.035156 835.617188 1000.011719 894.769531 C 998.984375 949.636719 998.359375 1005.265625 1001.660156 1060.042969 L 1001.792969 1063.566406 L 998.492188 1064.59375 C 937.023438 1083.820312 888.355469 1131.996094 868.371094 1193.0625 L 862.660156 1210.148438 L 859.628906 1192.441406 C 848.742188 1129.585938 845.578125 1064.59375 844.59375 1000.847656 C 843.433594 920.820312 845.753906 840.257812 847.628906 760.230469 C 848.789062 712.8125 849.902344 665.527344 850.660156 618.242188 L 850.796875 614.453125 L 854.585938 613.960938 C 1057.910156 583.761719 1259.09375 501.683594 1413.617188 364.246094 L 1416.515625 361.566406 L 1419.550781 364.246094 C 1574.070312 501.683594 1775.253906 583.894531 1978.578125 613.960938 L 1982.238281 614.453125 L 1982.371094 618.242188 C 1983.128906 665.527344 1984.289062 712.8125 1985.402344 760.230469 C 1986.652344 809.300781 1987.8125 858.59375 1988.4375 907.796875 C 1988.925781 950.664062 1988.925781 993.800781 1987.542969 1036.667969 C 1985.402344 1107.371094 1979.46875 1180.171875 1961.136719 1248.734375 L 1953.554688 1277.550781 L 1952.394531 1247.710938 C 1949.628906 1171.472656 1903.324219 1103.445312 1833.648438 1072.578125 L 1830.746094 1071.328125 L 1831.015625 1068.160156 C 1833.558594 1030.734375 1834.046875 993.042969 1833.78125 955.613281 C 1833.648438 911.988281 1832.53125 868.363281 1831.503906 824.867188 C 1830.613281 789.226562 1829.855469 753.675781 1829.230469 718.164062 L 1829.230469 717.898438 C 1829.496094 708.933594 1822.761719 701.214844 1813.796875 700.054688 C 1673.460938 681.632812 1532.945312 624.710938 1428.648438 527.601562 Z M 1246.828125 971.808594 L 1335.597656 971.808594 C 1345.457031 971.808594 1353.441406 963.824219 1353.441406 953.964844 L 1353.441406 865.195312 L 1479.769531 865.195312 L 1479.769531 953.964844 C 1479.769531 963.824219 1487.753906 971.808594 1497.613281 971.808594 L 1586.25 971.808594 L 1586.25 1098.136719 L 1497.613281 1098.136719 C 1487.753906 1098.136719 1479.769531 1106.121094 1479.769531 1115.980469 L 1479.769531 1204.617188 L 1353.441406 1204.617188 L 1353.441406 1115.980469 C 1353.441406 1106.121094 1345.457031 1098.136719 1335.597656 1098.136719 L 1246.828125 1098.136719 Z M 1246.828125 971.808594 "/></g></svg>