<svg xmlns="http://www.w3.org/2000/svg" viewBox="0 0 512 512" id="consult-doctor">
  <path fill="#eee" d="m482.732 512 .536-140.788a60 60 0 0 0-43.524-57.694l-122.462-34.973a30 30 0 0 1-21.014-28.622v-32.975h-80v32.975a30 30 0 0 1-21.014 28.622L72.792 313.518a60 60 0 0 0-43.524 57.694L28.732 512Z"></path>
  <path fill="#ffcd85" d="M200.807 299.344a167.697 167.697 0 0 0 110.922-1.28l16.788-16.31-11.235-3.209a30 30 0 0 1-21.014-28.622v-32.975h-80v32.975a30 30 0 0 1-21.014 28.622l-9.494 2.712Z"></path>
  <circle cx="434.732" cy="413" r="26.5" fill="#bebebe"></circle>
  <path fill="#bebebe" d="M407.183 304.22c6.429 10.573 15.482 28.966 18.46 44.593a101.71 101.71 0 0 1 .303 36.415 7.5 7.5 0 1 0 14.783 2.544 116.643 116.643 0 0 0-.35-41.767c-2.356-12.358-7.611-25.334-12.92-35.995Z"></path>
  <circle cx="424.732" cy="413" r="26.5" fill="#676e87"></circle>
  <path fill="#676e87" d="M415.644 348.813a101.71 101.71 0 0 1 .302 36.415 7.5 7.5 0 1 0 14.783 2.544 116.643 116.643 0 0 0-.35-41.767c-2.608-13.678-8.767-28.123-14.62-39.336l-20.783-5.936c6.35 9.554 17.328 30.56 20.668 48.08Z"></path>
  <path fill="#bebebe" d="M68.285 460.56a7.5 7.5 0 0 0 8.76 5.982l13.026-2.454a7.5 7.5 0 0 0-2.778-14.74l-5.655 1.065-5.924-31.447a22 22 0 1 1 43.24-8.146l5.924 31.447-5.656 1.065a7.5 7.5 0 0 0 2.777 14.74l13.026-2.454a7.5 7.5 0 0 0 5.982-8.759l-7.313-38.816a37.057 37.057 0 0 0-36.5-30.144 117.855 117.855 0 0 1 2.59-28.901c3.014-13.911 13.675-37.212 20.17-48.948l-20.226 5.776c-5.58 11.605-12.139 28.618-14.604 39.994a132.875 132.875 0 0 0-2.814 35.267 37.057 37.057 0 0 0-21.337 40.656Z"></path>
  <path fill="#676e87" d="M58.285 460.56a7.5 7.5 0 0 0 8.76 5.982l13.025-2.454a7.5 7.5 0 0 0-2.777-14.74l-5.655 1.065-5.924-31.447a22 22 0 1 1 43.24-8.146l5.924 31.447-5.656 1.065a7.5 7.5 0 0 0 2.777 14.74l13.026-2.454a7.5 7.5 0 0 0 5.982-8.759l-7.313-38.816a37.057 37.057 0 0 0-36.5-30.144 117.855 117.855 0 0 1 2.59-28.901c3.014-13.911 12.354-33.979 18.85-45.715l-19.768 5.645c-5.58 11.605-11.277 25.516-13.742 36.892a132.875 132.875 0 0 0-2.814 35.267 37.057 37.057 0 0 0-21.337 40.656Z"></path>
  <path fill="#bebebe" d="m381.6 364.375-29.136-7.769a5 5 0 0 1-3.267-6.893l24.872-54.95-50.037-14.29L293.72 512h43.688l47.638-141.187a5 5 0 0 0-3.447-6.438Z"></path>
  <path fill="#cecece" d="m327.408 512 47.638-141.187a5 5 0 0 0-3.447-6.438l-29.135-7.769a5 5 0 0 1-3.267-6.893l30.899-68.266a5 5 0 0 0-3.863-7.014l-50.485-7.062L283.72 512Z"></path>
  <path fill="#bebebe" d="m137.518 295.034 24.749 54.68a5 5 0 0 1-3.267 6.892l-29.135 7.77a5 5 0 0 0-3.447 6.437L174.471 512h43.24l-29.288-231.504Z"></path>
  <path fill="#cecece" d="m184.47 512-48.052-141.187a5 5 0 0 1 3.447-6.438L169 356.606a5 5 0 0 0 3.267-6.893l-30.891-68.25a5 5 0 0 1 3.874-7.016l51.512-7.076L227.711 512Z"></path>
  <path fill="#676e87" d="M343.03 114.777H168.971l-7.156-70.683A33.141 33.141 0 0 1 194.65 7.5h122.703a33.141 33.141 0 0 1 32.834 36.594Z"></path>
  <path fill="#595f74" d="M317.352 7.5h-20a33.141 33.141 0 0 1 32.834 36.594l-7.156 70.683h20l7.156-70.683A33.141 33.141 0 0 0 317.352 7.5Z"></path>
  <path fill="#ffcd85" d="M345.1 178.869h-12.07l10-64.092h2.07a31.94 31.94 0 0 1 31.939 31.939v.213a31.94 31.94 0 0 1-31.94 31.94Z"></path>
  <path fill="#ffc166" d="M166.902 178.869h12.07l-10-64.092h-2.07a31.94 31.94 0 0 0-31.94 31.939v.213a31.94 31.94 0 0 0 31.94 31.94zm115.972 90.81 13.346-7.914c.677-.402 1.343-.82 2.008-1.237a29.91 29.91 0 0 1-1.96-10.605v-32.975h-80v32.975a29.914 29.914 0 0 1-2.06 10.873c.523.324 1.043.654 1.574.969l13.346 7.914a52.644 52.644 0 0 0 53.746 0z"></path>
  <path fill="#ffcd85" d="M318.277 81.723a24.836 24.836 0 0 1 24.753 24.92v62.671a95.818 95.818 0 0 1-46.81 82.45l-13.346 7.915a52.644 52.644 0 0 1-53.746 0l-13.346-7.914a95.818 95.818 0 0 1-46.81-82.45v-62.673a24.836 24.836 0 0 1 24.753-24.919Z"></path>
  <path fill="#ffc166" d="M318.277 81.723h-20a24.836 24.836 0 0 1 24.753 24.92v62.671a95.818 95.818 0 0 1-46.81 82.45l-13.346 7.915a52.664 52.664 0 0 1-16.873 6.412 52.638 52.638 0 0 0 36.873-6.412l13.346-7.914a95.818 95.818 0 0 0 46.81-82.45v-62.673a24.836 24.836 0 0 0-24.753-24.919Z"></path>
</svg>
