<svg xmlns="http://www.w3.org/2000/svg" viewBox="0 0 512 512" id="feedback">
  <path fill="#f2f2f2" d="M487.382 54.042H331.534a17.118 17.118 0 0 0-17.118 17.117v103.848a17.118 17.118 0 0 0 17.118 17.118h45.498a10 10 0 0 1 7.071 2.929l20.034 20.033a5 5 0 0 0 7.071 0l20.034-20.033a10 10 0 0 1 7.07-2.93h49.07a17.118 17.118 0 0 0 17.118-17.117V71.16a17.118 17.118 0 0 0-17.118-17.117Z"></path>
  <path fill="#dedede" d="M459.5 108.083h-55.084a7.5 7.5 0 0 1 0-15H459.5a7.5 7.5 0 0 1 0 15zm0 45h-55.084a7.5 7.5 0 0 1 0-15H459.5a7.5 7.5 0 0 1 0 15z"></path>
  <path fill="#f2f2f2" d="M24.618 54.042h155.848a17.118 17.118 0 0 1 17.118 17.117v103.848a17.118 17.118 0 0 1-17.118 17.118h-45.498a10 10 0 0 0-7.071 2.929l-20.034 20.033a5 5 0 0 1-7.07 0l-20.034-20.033a10 10 0 0 0-7.071-2.93h-49.07A17.118 17.118 0 0 1 7.5 175.008V71.16a17.118 17.118 0 0 1 17.118-17.117Z"></path>
  <path fill="#dedede" d="M107.584 108.083H52.5a7.5 7.5 0 0 1 0-15h55.084a7.5 7.5 0 0 1 0 15zm0 45H52.5a7.5 7.5 0 0 1 0-15h55.084a7.5 7.5 0 0 1 0 15z"></path>
  <path fill="#66c1ff" d="M316.708 455.079a25.61 25.61 0 0 1 18.936-24.726l42.648-11.512a15.884 15.884 0 0 0 11.744-15.335v-9.557h41.136v9.557a15.884 15.884 0 0 0 11.744 15.335l42.648 11.512A25.61 25.61 0 0 1 504.5 455.08V512H316.708Z"></path>
  <path fill="#676e87" d="m453.385 341.701-85.562.307v-38.421a25.61 25.61 0 0 1 25.61-25.611h55.952a4 4 0 0 1 4 4Z"></path>
  <path fill="#ffcd85" d="M431.172 403.506v-9.557h-41.136v9.557a15.884 15.884 0 0 1-11.744 15.335l1.059.818a51.158 51.158 0 0 0 63.565-.818 15.884 15.884 0 0 1-11.744-15.335Z"></path>
  <path fill="#ffc166" d="M431.172 403.506v-9.557h-41.136v9.557a15.882 15.882 0 0 1-.299 3.017 42.764 42.764 0 0 0 41.734 0 15.87 15.87 0 0 1-.3-3.017Z"></path>
  <path fill="#4eb7ff" d="M473.584 512v-39.59a7.5 7.5 0 0 0-15 0V512Z"></path>
  <path fill="#ffcd85" d="M453.385 329.203v29.975a42.781 42.781 0 0 1-85.562 0v-29.975c14.39-7.097 24.848-6.93 31.585-5.602 10.321 2.035 14.212 7.246 24.92 9.394 11.82 2.372 22.358-.913 29.057-3.792Z"></path>
  <path fill="#66c1ff" d="M6.708 455.079a25.61 25.61 0 0 1 18.936-24.726l42.648-11.512a15.884 15.884 0 0 0 11.744-15.335v-9.557h41.136v9.557a15.884 15.884 0 0 0 11.744 15.335l42.648 11.512A25.61 25.61 0 0 1 194.5 455.08V512H6.708Z"></path>
  <path fill="#676e87" d="m143.385 341.701-85.562.307v-38.421a25.61 25.61 0 0 1 25.61-25.611h55.952a4 4 0 0 1 4 4Z"></path>
  <path fill="#ffcd85" d="M121.172 403.506v-9.557H80.036v9.557a15.884 15.884 0 0 1-11.744 15.335l1.059.818a51.158 51.158 0 0 0 63.565-.818 15.884 15.884 0 0 1-11.744-15.335Z"></path>
  <path fill="#ffc166" d="M121.172 403.506v-9.557H80.036v9.557a15.882 15.882 0 0 1-.299 3.017 42.764 42.764 0 0 0 41.734 0 15.87 15.87 0 0 1-.3-3.017Z"></path>
  <path fill="#4eb7ff" d="M53.416 512v-39.59a7.5 7.5 0 0 0-15 0V512Z"></path>
  <path fill="#ffcd85" d="M143.385 329.203v29.975a42.781 42.781 0 0 1-85.562 0v-29.975c14.39-7.097 24.848-6.93 31.585-5.602 10.321 2.035 14.212 7.246 24.92 9.394 11.82 2.372 22.358-.913 29.057-3.792Z"></path>
  <path fill="#4eb7ff" d="M380.988 446.61a44.91 44.91 0 0 0-8.456-26.214l-36.888 9.957a25.61 25.61 0 0 0-18.936 24.726V512h64.28zm-249.976 0V512H194.5v-56.92a25.611 25.611 0 0 0-18.936-24.727l-36.227-9.779a44.911 44.911 0 0 0-8.325 26.035z"></path>
  <path fill="#f66" d="M365.988 512v-65.39a30 30 0 0 0-22.182-28.964l-49.956-13.485a18.606 18.606 0 0 1-13.757-17.963v-11.195h-48.185v11.195a18.606 18.606 0 0 1-13.758 17.963l-49.956 13.485a30 30 0 0 0-22.182 28.963V512Z"></path>
  <path fill="#676e87" d="m306.113 313.8-100.226.36v-45.005a30 30 0 0 1 30-30h64.226a6 6 0 0 1 6 6Z"></path>
  <path fill="#ff4e4e" d="M198.512 512v-45.09a7.5 7.5 0 0 0-15 0V512zm129.976 0v-45.09a7.5 7.5 0 0 0-15 0V512z"></path>
  <path fill="#ffcd85" d="M293.85 404.161a18.606 18.606 0 0 1-13.757-17.963v-11.195h-48.185v11.195a18.606 18.606 0 0 1-13.758 17.963l1.24.958a59.925 59.925 0 0 0 74.46-.958Z"></path>
  <path fill="#ffc166" d="M280.093 386.198v-11.195h-48.185v11.195a18.628 18.628 0 0 1-.115 1.956 50.126 50.126 0 0 0 48.414 0 18.628 18.628 0 0 1-.114-1.956Z"></path>
  <path fill="#ffcd85" d="M306.113 299.16v35.114a50.113 50.113 0 0 1-100.226 0V299.16c16.857-8.313 29.106-8.117 36.999-6.562 12.09 2.383 16.647 8.488 29.19 11.004 13.847 2.778 26.19-1.069 34.037-4.442Z"></path>
  <path fill="#dedede" d="M356.425 160.583a32.153 32.153 0 0 0 32.117-32.117V54.04h-57.008a17.118 17.118 0 0 0-17.118 17.118v89.424zM180.466 54.042h-57.008v74.424a32.153 32.153 0 0 0 32.118 32.117h42.008V71.159a17.118 17.118 0 0 0-17.118-17.118z"></path>
  <path fill="#f2f2f2" d="M356.424 7.5H155.576a17.118 17.118 0 0 0-17.118 17.118v103.848a17.118 17.118 0 0 0 17.118 17.117h60.498a10 10 0 0 1 7.071 2.93l20.034 20.033a5 5 0 0 0 7.071 0l20.034-20.034a10 10 0 0 1 7.07-2.929h79.07a17.118 17.118 0 0 0 17.118-17.117V24.618A17.118 17.118 0 0 0 356.424 7.5Z"></path>
  <path fill="#dedede" d="M328.542 61.542H183.458a7.5 7.5 0 0 1 0-15h145.084a7.5 7.5 0 0 1 0 15zm0 45H183.458a7.5 7.5 0 0 1 0-15h145.084a7.5 7.5 0 0 1 0 15z"></path>
</svg>
