<svg xmlns="http://www.w3.org/2000/svg" viewBox="0 0 512 512" id="heart-care">
  <path fill="#f66" d="m251.18 34.348-8.289-8.29a63.36 63.36 0 0 0-89.606 0 63.36 63.36 0 0 0 0 89.606l13.11 13.109 81.573 81.573a11.36 11.36 0 0 0 16.064 0l81.574-81.573 13.109-13.11a63.36 63.36 0 0 0 0-89.605 63.36 63.36 0 0 0-89.606 0l-8.29 8.29a6.816 6.816 0 0 1-9.638 0Z"></path>
  <path fill="#ff4e4e" d="m222.891 26.058 8.29 8.29a6.816 6.816 0 0 0 9.639 0l5.18-5.181-3.109-3.11a63.261 63.261 0 0 0-54.803-17.752 63.056 63.056 0 0 1 34.803 17.753zm135.824 0a63.261 63.261 0 0 0-54.803-17.753 63.056 63.056 0 0 1 34.803 17.753 63.36 63.36 0 0 1 0 89.606l-13.109 13.109L246 208.379l1.968 1.967a11.36 11.36 0 0 0 16.064 0l81.574-81.573 13.109-13.11a63.36 63.36 0 0 0 0-89.605z"></path>
  <path fill="#ffcd85" d="M397.428 417.044v-38.33a51.583 51.583 0 0 1 12.47-33.617l85.04-98.99a39.516 39.516 0 0 0 7.896-37.117l-49.05-163.515a20.307 20.307 0 0 0-19.47-14.438 20.264 20.264 0 0 0-20.272 21.6l9.871 144.1-120.702 101.13v122.25Z"></path>
  <path fill="#ffcd85" d="m373.691 264.524 46.57-45.928a36.46 36.46 0 0 0 .334-51.584l-.643-.652a14.46 14.46 0 0 0-20.267-.302l-83.938 80.043a87.704 87.704 0 0 0-27.218 63.472v110.545Z"></path>
  <path fill="#ffc166" d="m420.595 167.011-.64-.646a14.467 14.467 0 0 0-20.27-.307l-.031.03c.098.093.202.176.298.272l.643.651a36.46 36.46 0 0 1-.335 51.585l-46.569 45.928a48.762 48.762 0 0 0 34.24-14.044l32.33-31.884a36.46 36.46 0 0 0 .334-51.585Z"></path>
  <path fill="#66c1ff" d="M271.24 506v-98.744a15 15 0 0 1 15-15h112.749a15 15 0 0 1 15 15V506a6 6 0 0 1-6 6h-130.75a6 6 0 0 1-6-6Z"></path>
  <path fill="#4eb7ff" d="M271.239 414.756h142.749v15H271.239z"></path>
  <path fill="#ffcd85" d="M114.572 417.044v-38.33a51.583 51.583 0 0 0-12.47-33.617l-85.04-98.99a39.516 39.516 0 0 1-7.896-37.117L58.217 45.475a20.307 20.307 0 0 1 19.47-14.438 20.264 20.264 0 0 1 20.271 21.6l-9.87 144.1 120.7 101.13v122.25Z"></path>
  <path fill="#ffcd85" d="m138.31 264.524-46.57-45.928a36.46 36.46 0 0 1-.335-51.584l.644-.652a14.46 14.46 0 0 1 20.266-.302l83.939 80.043a87.704 87.704 0 0 1 27.218 63.472v110.545Z"></path>
  <path fill="#ffc166" d="m91.406 167.011.638-.646a14.467 14.467 0 0 1 20.271-.307l.031.03c-.097.093-.202.176-.297.272l-.643.651a36.46 36.46 0 0 0 .334 51.585l46.57 45.928a48.762 48.762 0 0 1-34.24-14.044l-32.33-31.884a36.46 36.46 0 0 1-.334-51.585Z"></path>
  <path fill="#66c1ff" d="M240.76 506v-98.744a15 15 0 0 0-15-15H113.013a15 15 0 0 0-15 15V506a6 6 0 0 0 6 6H234.76a6 6 0 0 0 6-6Z"></path>
  <path fill="#4eb7ff" d="M98.012 414.756h142.749v15H98.012z"></path>
  <path fill="#fff" d="M294 95.587h-23v-23a10 10 0 0 0-10-10h-10a10 10 0 0 0-10 10v23h-23a10 10 0 0 0-10 10v10a10 10 0 0 0 10 10h23v23a10 10 0 0 0 10 10h10a10 10 0 0 0 10-10v-23h23a10 10 0 0 0 10-10v-10a10 10 0 0 0-10-10Z"></path>
</svg>
