<svg xmlns="http://www.w3.org/2000/svg" xmlns:xlink="http://www.w3.org/1999/xlink" width="3780" zoomAndPan="magnify" viewBox="0 0 2835 2834.999876" height="3780" preserveAspectRatio="xMidYMid meet" version="1.2"><defs><clipPath id="6996458643"><path d="M 850.394531 850.394531 L 1984.394531 850.394531 L 1984.394531 1978 L 850.394531 1978 Z M 850.394531 850.394531 "/></clipPath></defs><g id="94b1ddc6f9"><g clip-rule="nonzero" clip-path="url(#6996458643)"><path style=" stroke:none;fill-rule:nonzero;fill:#ffbd59;fill-opacity:1;" d="M 1984.242188 1417.316406 C 1984.242188 1104.214844 1730.421875 850.394531 1417.316406 850.394531 C 1104.214844 850.394531 850.394531 1104.214844 850.394531 1417.316406 C 850.394531 1700.285156 1057.710938 1934.824219 1328.734375 1977.355469 L 1328.734375 1581.195312 L 1184.789062 1581.195312 L 1184.789062 1417.316406 L 1328.734375 1417.316406 L 1328.734375 1292.417969 C 1328.734375 1150.332031 1413.375 1071.847656 1542.871094 1071.847656 C 1604.898438 1071.847656 1669.777344 1082.921875 1669.777344 1082.921875 L 1669.777344 1222.4375 L 1598.289062 1222.4375 C 1527.863281 1222.4375 1505.898438 1266.136719 1505.898438 1310.972656 L 1505.898438 1417.316406 L 1663.132812 1417.316406 L 1637.996094 1581.195312 L 1505.898438 1581.195312 L 1505.898438 1977.355469 C 1776.925781 1934.824219 1984.242188 1700.285156 1984.242188 1417.316406 "/></g></g></svg>