<svg xmlns="http://www.w3.org/2000/svg" xmlns:xlink="http://www.w3.org/1999/xlink" width="3780" zoomAndPan="magnify" viewBox="0 0 2835 2834.999876" height="3780" preserveAspectRatio="xMidYMid meet" version="1.2"><defs><clipPath id="e7362a3352"><path d="M 852 1019.265625 L 1982 1019.265625 L 1982 1815.015625 L 852 1815.015625 Z M 852 1019.265625 "/></clipPath></defs><g id="75306595d3"><g clip-rule="nonzero" clip-path="url(#e7362a3352)"><path style=" stroke:none;fill-rule:nonzero;fill:#ffbd59;fill-opacity:1;" d="M 1301.546875 1585.074219 L 1301.546875 1249.207031 L 1596.742188 1417.148438 Z M 1958.183594 1143.523438 C 1945.191406 1094.613281 1906.917969 1056.09375 1858.328125 1043.023438 C 1770.25 1019.265625 1417.058594 1019.265625 1417.058594 1019.265625 C 1417.058594 1019.265625 1063.867188 1019.265625 975.789062 1043.023438 C 927.191406 1056.09375 888.921875 1094.613281 875.933594 1143.523438 C 852.332031 1232.175781 852.332031 1417.140625 852.332031 1417.140625 C 852.332031 1417.140625 852.332031 1602.105469 875.933594 1690.757812 C 888.921875 1739.671875 927.191406 1778.1875 975.789062 1791.265625 C 1063.867188 1815.015625 1417.058594 1815.015625 1417.058594 1815.015625 C 1417.058594 1815.015625 1770.25 1815.015625 1858.328125 1791.265625 C 1906.917969 1778.1875 1945.191406 1739.671875 1958.183594 1690.757812 C 1981.785156 1602.105469 1981.785156 1417.140625 1981.785156 1417.140625 C 1981.785156 1417.140625 1981.785156 1232.175781 1958.183594 1143.523438 "/></g></g></svg>