<svg xmlns="http://www.w3.org/2000/svg" xmlns:xlink="http://www.w3.org/1999/xlink" width="3780" zoomAndPan="magnify" viewBox="0 0 2835 2834.999876" height="3780" preserveAspectRatio="xMidYMid meet" version="1.2"><defs><clipPath id="f0cc26b8dd"><path d="M 1109 868.683594 L 1721 868.683594 L 1721 1570 L 1109 1570 Z M 1109 868.683594 "/></clipPath><clipPath id="b8699fd02d"><path d="M 851 1705 L 1046 1705 L 1046 1965.933594 L 851 1965.933594 Z M 851 1705 "/></clipPath><clipPath id="c1949b1317"><path d="M 1363 1705 L 1562 1705 L 1562 1965.933594 L 1363 1965.933594 Z M 1363 1705 "/></clipPath><clipPath id="ca99d6cb9e"><path d="M 1057 1788 L 1120 1788 L 1120 1965.933594 L 1057 1965.933594 Z M 1057 1788 "/></clipPath><clipPath id="4f613465ee"><path d="M 1144 1704 L 1352 1704 L 1352 1965.933594 L 1144 1965.933594 Z M 1144 1704 "/></clipPath><clipPath id="7986a67b34"><path d="M 1776 1704 L 1984 1704 L 1984 1965.933594 L 1776 1965.933594 Z M 1776 1704 "/></clipPath><clipPath id="bfef273af3"><path d="M 1537 1753 L 1751 1753 L 1751 1965.933594 L 1537 1965.933594 Z M 1537 1753 "/></clipPath></defs><g id="f355e46f95"><g clip-rule="nonzero" clip-path="url(#f0cc26b8dd)"><path style=" stroke:none;fill-rule:nonzero;fill:#ffbd59;fill-opacity:1;" d="M 1629.480469 1009.15625 C 1581.992188 978.160156 1553.21875 925.410156 1553.21875 868.683594 L 1432.746094 868.683594 L 1432.511719 1351.398438 C 1430.40625 1407.1875 1383.386719 1450.816406 1327.59375 1448.59375 C 1271.800781 1446.488281 1228.171875 1399.46875 1230.394531 1343.675781 C 1232.5 1289.289062 1277.179688 1246.363281 1331.570312 1246.363281 C 1341.746094 1246.363281 1351.804688 1248 1361.394531 1251.039062 L 1361.394531 1127.992188 C 1351.453125 1126.589844 1341.511719 1125.886719 1331.570312 1125.769531 C 1209.339844 1125.769531 1109.921875 1225.191406 1109.921875 1347.421875 C 1110.15625 1469.765625 1209.222656 1568.953125 1331.6875 1569.070312 C 1453.914062 1569.070312 1553.335938 1469.648438 1553.335938 1347.421875 L 1553.335938 1102.730469 C 1602.109375 1137.820312 1660.710938 1156.765625 1720.828125 1156.648438 L 1720.828125 1036.175781 C 1688.3125 1036.292969 1656.617188 1026.820312 1629.480469 1009.15625 Z M 1629.480469 1009.15625 "/></g><g clip-rule="nonzero" clip-path="url(#b8699fd02d)"><path style=" stroke:none;fill-rule:nonzero;fill:#ffbd59;fill-opacity:1;" d="M 851.3125 1705.214844 L 1045.355469 1705.214844 L 1027.578125 1760.773438 L 977.28125 1760.773438 L 977.28125 1966.046875 L 914.472656 1966.046875 L 914.472656 1760.65625 L 851.3125 1760.773438 Z M 851.3125 1705.214844 "/></g><g clip-rule="nonzero" clip-path="url(#c1949b1317)"><path style=" stroke:none;fill-rule:nonzero;fill:#ffbd59;fill-opacity:1;" d="M 1363.265625 1705.214844 L 1561.757812 1705.214844 L 1543.980469 1760.773438 L 1489.238281 1760.773438 L 1489.238281 1966.046875 L 1426.429688 1966.046875 L 1426.429688 1760.65625 L 1363.265625 1760.773438 Z M 1363.265625 1705.214844 "/></g><g clip-rule="nonzero" clip-path="url(#ca99d6cb9e)"><path style=" stroke:none;fill-rule:nonzero;fill:#ffbd59;fill-opacity:1;" d="M 1057.167969 1788.144531 L 1119.394531 1788.144531 L 1119.394531 1965.933594 L 1057.519531 1965.933594 Z M 1057.167969 1788.144531 "/></g><g clip-rule="nonzero" clip-path="url(#4f613465ee)"><path style=" stroke:none;fill-rule:nonzero;fill:#ffbd59;fill-opacity:1;" d="M 1144.074219 1704.398438 L 1206.183594 1704.398438 L 1206.183594 1825.808594 L 1267.824219 1765.335938 L 1341.980469 1765.335938 L 1264.082031 1840.894531 L 1351.335938 1965.816406 L 1282.914062 1965.816406 L 1224.664062 1879.261719 L 1206.183594 1897.15625 L 1206.183594 1965.816406 L 1144.074219 1965.816406 Z M 1144.074219 1704.398438 "/></g><g clip-rule="nonzero" clip-path="url(#7986a67b34)"><path style=" stroke:none;fill-rule:nonzero;fill:#ffbd59;fill-opacity:1;" d="M 1776.039062 1704.398438 L 1838.144531 1704.398438 L 1838.144531 1825.808594 L 1899.785156 1765.335938 L 1973.941406 1765.335938 L 1896.042969 1840.894531 L 1983.300781 1965.816406 L 1914.875 1965.816406 L 1856.625 1879.261719 L 1838.144531 1897.15625 L 1838.144531 1965.816406 L 1776.039062 1965.816406 Z M 1776.039062 1704.398438 "/></g><path style=" stroke:none;fill-rule:nonzero;fill:#ffbd59;fill-opacity:1;" d="M 1119.628906 1736.445312 C 1119.628906 1737.472656 1119.578125 1738.496094 1119.476562 1739.519531 C 1119.378906 1740.539062 1119.226562 1741.554688 1119.027344 1742.5625 C 1118.828125 1743.566406 1118.578125 1744.5625 1118.277344 1745.546875 C 1117.980469 1746.527344 1117.636719 1747.492188 1117.242188 1748.441406 C 1116.851562 1749.390625 1116.410156 1750.316406 1115.925781 1751.222656 C 1115.445312 1752.128906 1114.917969 1753.007812 1114.347656 1753.863281 C 1113.777344 1754.714844 1113.164062 1755.539062 1112.515625 1756.332031 C 1111.863281 1757.125 1111.171875 1757.886719 1110.449219 1758.613281 C 1109.722656 1759.335938 1108.960938 1760.027344 1108.167969 1760.675781 C 1107.375 1761.328125 1106.550781 1761.941406 1105.699219 1762.511719 C 1104.84375 1763.082031 1103.964844 1763.605469 1103.058594 1764.089844 C 1102.152344 1764.574219 1101.226562 1765.011719 1100.277344 1765.40625 C 1099.328125 1765.800781 1098.363281 1766.144531 1097.382812 1766.441406 C 1096.398438 1766.742188 1095.40625 1766.988281 1094.398438 1767.191406 C 1093.390625 1767.390625 1092.375 1767.542969 1091.355469 1767.640625 C 1090.332031 1767.742188 1089.308594 1767.792969 1088.28125 1767.792969 C 1087.253906 1767.792969 1086.230469 1767.742188 1085.210938 1767.640625 C 1084.1875 1767.542969 1083.175781 1767.390625 1082.167969 1767.191406 C 1081.160156 1766.988281 1080.164062 1766.742188 1079.183594 1766.441406 C 1078.199219 1766.144531 1077.234375 1765.800781 1076.285156 1765.40625 C 1075.339844 1765.015625 1074.410156 1764.574219 1073.503906 1764.089844 C 1072.601562 1763.605469 1071.722656 1763.082031 1070.867188 1762.511719 C 1070.011719 1761.941406 1069.191406 1761.328125 1068.394531 1760.675781 C 1067.601562 1760.027344 1066.84375 1759.335938 1066.117188 1758.613281 C 1065.390625 1757.886719 1064.703125 1757.125 1064.050781 1756.332031 C 1063.398438 1755.539062 1062.789062 1754.714844 1062.21875 1753.863281 C 1061.648438 1753.007812 1061.121094 1752.128906 1060.636719 1751.222656 C 1060.152344 1750.316406 1059.714844 1749.390625 1059.320312 1748.441406 C 1058.929688 1747.492188 1058.582031 1746.527344 1058.285156 1745.546875 C 1057.988281 1744.5625 1057.738281 1743.566406 1057.539062 1742.5625 C 1057.335938 1741.554688 1057.1875 1740.539062 1057.085938 1739.519531 C 1056.984375 1738.496094 1056.9375 1737.472656 1056.9375 1736.445312 C 1056.9375 1735.417969 1056.984375 1734.394531 1057.085938 1733.375 C 1057.1875 1732.351562 1057.335938 1731.335938 1057.539062 1730.332031 C 1057.738281 1729.324219 1057.988281 1728.328125 1058.285156 1727.347656 C 1058.582031 1726.363281 1058.929688 1725.398438 1059.320312 1724.449219 C 1059.714844 1723.5 1060.152344 1722.574219 1060.636719 1721.667969 C 1061.121094 1720.765625 1061.648438 1719.882812 1062.21875 1719.03125 C 1062.789062 1718.175781 1063.398438 1717.355469 1064.050781 1716.558594 C 1064.703125 1715.765625 1065.390625 1715.007812 1066.117188 1714.28125 C 1066.84375 1713.554688 1067.601562 1712.867188 1068.394531 1712.214844 C 1069.191406 1711.5625 1070.011719 1710.953125 1070.867188 1710.382812 C 1071.722656 1709.8125 1072.601562 1709.285156 1073.503906 1708.800781 C 1074.410156 1708.316406 1075.339844 1707.878906 1076.285156 1707.484375 C 1077.234375 1707.09375 1078.199219 1706.746094 1079.183594 1706.449219 C 1080.164062 1706.152344 1081.160156 1705.902344 1082.167969 1705.703125 C 1083.175781 1705.5 1084.1875 1705.351562 1085.210938 1705.25 C 1086.230469 1705.148438 1087.253906 1705.097656 1088.28125 1705.097656 C 1089.308594 1705.097656 1090.332031 1705.148438 1091.355469 1705.25 C 1092.375 1705.351562 1093.390625 1705.5 1094.398438 1705.703125 C 1095.40625 1705.902344 1096.398438 1706.152344 1097.382812 1706.449219 C 1098.363281 1706.746094 1099.328125 1707.09375 1100.277344 1707.484375 C 1101.226562 1707.878906 1102.152344 1708.316406 1103.058594 1708.800781 C 1103.964844 1709.285156 1104.84375 1709.8125 1105.699219 1710.382812 C 1106.550781 1710.953125 1107.375 1711.5625 1108.167969 1712.214844 C 1108.960938 1712.867188 1109.722656 1713.554688 1110.449219 1714.28125 C 1111.171875 1715.007812 1111.863281 1715.765625 1112.515625 1716.558594 C 1113.164062 1717.355469 1113.777344 1718.175781 1114.347656 1719.03125 C 1114.917969 1719.882812 1115.445312 1720.765625 1115.925781 1721.667969 C 1116.410156 1722.574219 1116.851562 1723.5 1117.242188 1724.449219 C 1117.636719 1725.398438 1117.980469 1726.363281 1118.277344 1727.347656 C 1118.578125 1728.328125 1118.828125 1729.324219 1119.027344 1730.332031 C 1119.226562 1731.335938 1119.378906 1732.351562 1119.476562 1733.375 C 1119.578125 1734.394531 1119.628906 1735.417969 1119.628906 1736.445312 Z M 1119.628906 1736.445312 "/><g clip-rule="nonzero" clip-path="url(#bfef273af3)"><path style=" stroke:none;fill-rule:nonzero;fill:#ffbd59;fill-opacity:1;" d="M 1644.335938 1753.054688 C 1585.5 1753.054688 1537.894531 1800.660156 1537.894531 1859.492188 C 1537.894531 1918.328125 1585.5 1965.933594 1644.335938 1965.933594 C 1703.167969 1965.933594 1750.773438 1918.328125 1750.773438 1859.492188 C 1750.773438 1800.660156 1703.050781 1753.054688 1644.335938 1753.054688 Z M 1644.335938 1911.191406 C 1615.796875 1911.191406 1592.636719 1888.03125 1592.636719 1859.492188 C 1592.636719 1830.953125 1615.796875 1807.792969 1644.335938 1807.792969 C 1672.875 1807.792969 1696.035156 1830.953125 1696.035156 1859.492188 C 1696.035156 1888.03125 1672.875 1911.191406 1644.335938 1911.191406 Z M 1644.335938 1911.191406 "/></g></g></svg>