<svg xmlns="http://www.w3.org/2000/svg" xmlns:xlink="http://www.w3.org/1999/xlink" width="3780" zoomAndPan="magnify" viewBox="0 0 2835 2834.999876" height="3780" preserveAspectRatio="xMidYMid meet" version="1.2"><defs><clipPath id="34806b0b22"><path d="M 850.394531 850.394531 L 1984.394531 850.394531 L 1984.394531 1984.394531 L 850.394531 1984.394531 Z M 850.394531 850.394531 "/></clipPath></defs><g id="cbe31d0552"><g clip-rule="nonzero" clip-path="url(#34806b0b22)"><path style=" stroke:none;fill-rule:nonzero;fill:#ffbd59;fill-opacity:1;" d="M 1182.519531 854.363281 C 1122.199219 857.207031 1081.007812 866.835938 1044.996094 880.984375 C 1007.726562 895.507812 976.136719 915 944.707031 946.542969 C 913.277344 978.085938 893.921875 1009.699219 879.5 1047.027344 C 865.542969 1083.117188 856.085938 1124.34375 853.421875 1184.695312 C 850.757812 1245.050781 850.167969 1264.453125 850.460938 1418.40625 C 850.757812 1572.359375 851.4375 1591.65625 854.363281 1652.136719 C 857.242188 1712.445312 866.835938 1753.628906 880.984375 1789.648438 C 895.53125 1826.917969 915 1858.496094 946.554688 1889.9375 C 978.109375 1921.378906 1009.699219 1940.691406 1047.117188 1955.136719 C 1083.171875 1969.070312 1124.410156 1978.570312 1184.753906 1981.214844 C 1245.097656 1983.855469 1264.519531 1984.46875 1418.429688 1984.171875 C 1572.335938 1983.878906 1591.714844 1983.199219 1652.183594 1980.328125 C 1712.652344 1977.460938 1753.617188 1967.800781 1789.648438 1953.71875 C 1826.917969 1939.136719 1858.519531 1919.703125 1889.9375 1888.136719 C 1921.359375 1856.570312 1940.703125 1824.9375 1955.113281 1787.585938 C 1969.082031 1751.53125 1978.570312 1710.292969 1981.191406 1649.996094 C 1983.832031 1589.480469 1984.457031 1570.160156 1984.160156 1416.230469 C 1983.867188 1262.296875 1983.175781 1243 1980.308594 1182.542969 C 1977.4375 1122.085938 1967.835938 1081.03125 1953.695312 1044.984375 C 1939.125 1007.714844 1919.679688 976.160156 1888.136719 944.695312 C 1856.59375 913.230469 1824.9375 893.898438 1787.597656 879.523438 C 1751.519531 865.566406 1710.304688 856.050781 1649.960938 853.445312 C 1589.617188 850.835938 1570.195312 850.167969 1416.230469 850.460938 C 1262.265625 850.757812 1242.988281 851.414062 1182.519531 854.363281 M 1189.140625 1879.222656 C 1133.867188 1876.820312 1103.855469 1867.636719 1083.851562 1859.949219 C 1057.367188 1849.746094 1038.5 1837.40625 1018.566406 1817.667969 C 998.632812 1797.925781 986.386719 1778.992188 976.046875 1752.5625 C 968.28125 1732.5625 958.925781 1702.582031 956.339844 1647.308594 C 953.527344 1587.566406 952.9375 1569.628906 952.609375 1418.269531 C 952.28125 1266.914062 952.859375 1248.996094 955.480469 1189.234375 C 957.835938 1134.003906 967.078125 1103.957031 974.753906 1083.964844 C 984.957031 1057.445312 997.25 1038.613281 1017.035156 1018.691406 C 1036.820312 998.769531 1055.699219 986.5 1082.152344 976.160156 C 1102.128906 968.359375 1132.109375 959.085938 1187.363281 956.453125 C 1247.148438 953.617188 1265.0625 953.050781 1416.398438 952.722656 C 1567.734375 952.394531 1585.695312 952.960938 1645.503906 955.59375 C 1700.734375 957.996094 1730.792969 967.144531 1750.757812 974.867188 C 1777.257812 985.070312 1796.113281 997.328125 1816.035156 1017.148438 C 1835.957031 1036.96875 1848.234375 1055.777344 1858.578125 1082.289062 C 1866.390625 1102.210938 1875.664062 1132.175781 1878.273438 1187.464844 C 1881.117188 1247.25 1881.765625 1265.179688 1882.035156 1416.5 C 1882.308594 1567.824219 1881.777344 1585.796875 1879.15625 1645.539062 C 1876.742188 1700.8125 1867.578125 1730.835938 1859.882812 1750.863281 C 1849.675781 1777.335938 1837.375 1796.214844 1817.578125 1816.125 C 1797.78125 1836.035156 1778.925781 1848.304688 1752.460938 1858.644531 C 1732.503906 1866.433594 1702.492188 1875.730469 1647.285156 1878.363281 C 1587.496094 1881.175781 1569.582031 1881.765625 1418.191406 1882.09375 C 1266.800781 1882.421875 1248.941406 1881.808594 1189.152344 1879.222656 M 1651.308594 1114.320312 C 1651.3125 1115.433594 1651.339844 1116.546875 1651.398438 1117.65625 C 1651.453125 1118.769531 1651.539062 1119.878906 1651.648438 1120.988281 C 1651.757812 1122.09375 1651.898438 1123.199219 1652.0625 1124.300781 C 1652.226562 1125.402344 1652.421875 1126.5 1652.640625 1127.589844 C 1652.859375 1128.683594 1653.105469 1129.765625 1653.375 1130.847656 C 1653.648438 1131.925781 1653.949219 1133 1654.273438 1134.0625 C 1654.597656 1135.128906 1654.949219 1136.183594 1655.324219 1137.234375 C 1655.703125 1138.28125 1656.105469 1139.320312 1656.53125 1140.347656 C 1656.960938 1141.375 1657.414062 1142.390625 1657.890625 1143.398438 C 1658.367188 1144.402344 1658.871094 1145.394531 1659.398438 1146.378906 C 1659.921875 1147.359375 1660.472656 1148.324219 1661.046875 1149.28125 C 1661.621094 1150.234375 1662.21875 1151.171875 1662.839844 1152.097656 C 1663.460938 1153.023438 1664.101562 1153.933594 1664.765625 1154.824219 C 1665.433594 1155.71875 1666.117188 1156.59375 1666.824219 1157.453125 C 1667.535156 1158.3125 1668.261719 1159.15625 1669.011719 1159.980469 C 1669.761719 1160.804688 1670.53125 1161.609375 1671.320312 1162.394531 C 1672.105469 1163.179688 1672.914062 1163.945312 1673.742188 1164.691406 C 1674.566406 1165.4375 1675.410156 1166.164062 1676.273438 1166.867188 C 1677.136719 1167.574219 1678.015625 1168.257812 1678.910156 1168.917969 C 1679.804688 1169.582031 1680.714844 1170.21875 1681.644531 1170.835938 C 1682.570312 1171.453125 1683.511719 1172.046875 1684.46875 1172.617188 C 1685.421875 1173.1875 1686.394531 1173.738281 1687.375 1174.257812 C 1688.359375 1174.78125 1689.355469 1175.28125 1690.359375 1175.753906 C 1691.367188 1176.230469 1692.386719 1176.679688 1693.417969 1177.105469 C 1694.445312 1177.527344 1695.484375 1177.925781 1696.535156 1178.300781 C 1697.582031 1178.671875 1698.640625 1179.019531 1699.707031 1179.34375 C 1700.773438 1179.664062 1701.847656 1179.957031 1702.925781 1180.226562 C 1704.007812 1180.496094 1705.09375 1180.738281 1706.1875 1180.953125 C 1707.277344 1181.167969 1708.375 1181.355469 1709.476562 1181.519531 C 1710.578125 1181.679688 1711.683594 1181.8125 1712.792969 1181.921875 C 1713.902344 1182.027344 1715.011719 1182.109375 1716.121094 1182.160156 C 1717.234375 1182.214844 1718.347656 1182.238281 1719.460938 1182.238281 C 1720.574219 1182.234375 1721.6875 1182.207031 1722.800781 1182.148438 C 1723.910156 1182.09375 1725.023438 1182.007812 1726.128906 1181.898438 C 1727.238281 1181.785156 1728.34375 1181.648438 1729.441406 1181.480469 C 1730.542969 1181.316406 1731.640625 1181.125 1732.730469 1180.90625 C 1733.824219 1180.6875 1734.910156 1180.441406 1735.988281 1180.167969 C 1737.070312 1179.894531 1738.140625 1179.597656 1739.207031 1179.273438 C 1740.269531 1178.945312 1741.328125 1178.59375 1742.375 1178.21875 C 1743.421875 1177.839844 1744.460938 1177.4375 1745.488281 1177.011719 C 1746.515625 1176.582031 1747.53125 1176.128906 1748.539062 1175.652344 C 1749.542969 1175.175781 1750.539062 1174.671875 1751.519531 1174.144531 C 1752.5 1173.617188 1753.46875 1173.066406 1754.421875 1172.492188 C 1755.375 1171.921875 1756.316406 1171.324219 1757.238281 1170.703125 C 1758.164062 1170.082031 1759.074219 1169.441406 1759.964844 1168.773438 C 1760.859375 1168.109375 1761.734375 1167.421875 1762.59375 1166.714844 C 1763.453125 1166.007812 1764.296875 1165.277344 1765.121094 1164.53125 C 1765.941406 1163.78125 1766.746094 1163.011719 1767.535156 1162.222656 C 1768.320312 1161.433594 1769.085938 1160.625 1769.832031 1159.800781 C 1770.578125 1158.972656 1771.304688 1158.128906 1772.007812 1157.265625 C 1772.714844 1156.40625 1773.394531 1155.527344 1774.058594 1154.632812 C 1774.71875 1153.734375 1775.359375 1152.824219 1775.976562 1151.898438 C 1776.59375 1150.96875 1777.1875 1150.027344 1777.757812 1149.074219 C 1778.328125 1148.117188 1778.875 1147.148438 1779.398438 1146.164062 C 1779.921875 1145.179688 1780.417969 1144.1875 1780.894531 1143.179688 C 1781.367188 1142.171875 1781.816406 1141.152344 1782.242188 1140.121094 C 1782.664062 1139.09375 1783.0625 1138.054688 1783.4375 1137.003906 C 1783.808594 1135.957031 1784.15625 1134.898438 1784.480469 1133.832031 C 1784.800781 1132.765625 1785.09375 1131.691406 1785.363281 1130.613281 C 1785.632812 1129.53125 1785.875 1128.445312 1786.089844 1127.351562 C 1786.304688 1126.261719 1786.492188 1125.164062 1786.652344 1124.0625 C 1786.816406 1122.960938 1786.949219 1121.855469 1787.054688 1120.746094 C 1787.164062 1119.636719 1787.242188 1118.527344 1787.296875 1117.414062 C 1787.347656 1116.304688 1787.375 1115.191406 1787.371094 1114.078125 C 1787.367188 1112.964844 1787.339844 1111.851562 1787.28125 1110.738281 C 1787.226562 1109.628906 1787.140625 1108.515625 1787.03125 1107.410156 C 1786.917969 1106.300781 1786.78125 1105.195312 1786.617188 1104.097656 C 1786.449219 1102.996094 1786.257812 1101.898438 1786.039062 1100.808594 C 1785.820312 1099.714844 1785.574219 1098.628906 1785.300781 1097.550781 C 1785.027344 1096.46875 1784.730469 1095.398438 1784.402344 1094.332031 C 1784.078125 1093.269531 1783.726562 1092.210938 1783.351562 1091.164062 C 1782.972656 1090.117188 1782.570312 1089.078125 1782.144531 1088.050781 C 1781.714844 1087.023438 1781.261719 1086.007812 1780.785156 1085 C 1780.304688 1083.996094 1779.804688 1083 1779.277344 1082.019531 C 1778.75 1081.039062 1778.199219 1080.074219 1777.625 1079.117188 C 1777.050781 1078.164062 1776.453125 1077.226562 1775.832031 1076.300781 C 1775.210938 1075.375 1774.570312 1074.46875 1773.90625 1073.574219 C 1773.238281 1072.679688 1772.554688 1071.804688 1771.84375 1070.945312 C 1771.136719 1070.085938 1770.410156 1069.246094 1769.660156 1068.421875 C 1768.910156 1067.597656 1768.140625 1066.792969 1767.351562 1066.007812 C 1766.5625 1065.222656 1765.753906 1064.457031 1764.929688 1063.710938 C 1764.101562 1062.964844 1763.257812 1062.238281 1762.394531 1061.53125 C 1761.535156 1060.828125 1760.65625 1060.144531 1759.757812 1059.484375 C 1758.863281 1058.824219 1757.953125 1058.183594 1757.027344 1057.566406 C 1756.097656 1056.949219 1755.15625 1056.355469 1754.199219 1055.785156 C 1753.246094 1055.214844 1752.273438 1054.667969 1751.292969 1054.144531 C 1750.308594 1053.621094 1749.3125 1053.125 1748.304688 1052.648438 C 1747.300781 1052.175781 1746.28125 1051.726562 1745.25 1051.300781 C 1744.222656 1050.878906 1743.183594 1050.480469 1742.132812 1050.105469 C 1741.082031 1049.734375 1740.027344 1049.386719 1738.960938 1049.066406 C 1737.894531 1048.746094 1736.820312 1048.449219 1735.738281 1048.179688 C 1734.660156 1047.914062 1733.574219 1047.671875 1732.480469 1047.457031 C 1731.386719 1047.242188 1730.289062 1047.054688 1729.1875 1046.890625 C 1728.085938 1046.730469 1726.980469 1046.597656 1725.875 1046.488281 C 1724.765625 1046.382812 1723.65625 1046.304688 1722.542969 1046.25 C 1721.429688 1046.199219 1720.316406 1046.171875 1719.203125 1046.175781 C 1718.089844 1046.175781 1716.980469 1046.207031 1715.867188 1046.265625 C 1714.753906 1046.320312 1713.644531 1046.40625 1712.539062 1046.515625 C 1711.429688 1046.628906 1710.328125 1046.765625 1709.226562 1046.929688 C 1708.125 1047.097656 1707.027344 1047.289062 1705.9375 1047.507812 C 1704.847656 1047.726562 1703.761719 1047.972656 1702.683594 1048.246094 C 1701.601562 1048.519531 1700.53125 1048.816406 1699.464844 1049.144531 C 1698.402344 1049.46875 1697.34375 1049.820312 1696.296875 1050.195312 C 1695.25 1050.574219 1694.214844 1050.976562 1693.1875 1051.402344 C 1692.160156 1051.832031 1691.140625 1052.285156 1690.136719 1052.761719 C 1689.132812 1053.238281 1688.136719 1053.742188 1687.15625 1054.269531 C 1686.175781 1054.796875 1685.210938 1055.347656 1684.253906 1055.917969 C 1683.300781 1056.492188 1682.363281 1057.089844 1681.4375 1057.710938 C 1680.515625 1058.332031 1679.605469 1058.972656 1678.710938 1059.636719 C 1677.820312 1060.304688 1676.945312 1060.988281 1676.085938 1061.699219 C 1675.226562 1062.40625 1674.382812 1063.132812 1673.5625 1063.882812 C 1672.738281 1064.632812 1671.933594 1065.402344 1671.148438 1066.1875 C 1670.363281 1066.976562 1669.59375 1067.785156 1668.847656 1068.609375 C 1668.105469 1069.4375 1667.378906 1070.28125 1666.671875 1071.144531 C 1665.96875 1072.003906 1665.285156 1072.882812 1664.625 1073.777344 C 1663.964844 1074.671875 1663.324219 1075.585938 1662.707031 1076.511719 C 1662.089844 1077.4375 1661.496094 1078.378906 1660.925781 1079.335938 C 1660.355469 1080.289062 1659.808594 1081.261719 1659.285156 1082.242188 C 1658.761719 1083.226562 1658.265625 1084.21875 1657.789062 1085.226562 C 1657.316406 1086.234375 1656.867188 1087.253906 1656.441406 1088.28125 C 1656.019531 1089.3125 1655.621094 1090.351562 1655.246094 1091.398438 C 1654.875 1092.445312 1654.527344 1093.503906 1654.203125 1094.570312 C 1653.882812 1095.636719 1653.589844 1096.710938 1653.320312 1097.789062 C 1653.050781 1098.871094 1652.808594 1099.957031 1652.59375 1101.046875 C 1652.378906 1102.140625 1652.191406 1103.238281 1652.027344 1104.339844 C 1651.867188 1105.4375 1651.734375 1106.542969 1651.625 1107.652344 C 1651.519531 1108.761719 1651.4375 1109.871094 1651.386719 1110.980469 C 1651.332031 1112.09375 1651.308594 1113.207031 1651.308594 1114.320312 M 1126.226562 1417.882812 C 1126.542969 1578.664062 1257.117188 1708.703125 1417.863281 1708.398438 C 1578.605469 1708.09375 1708.738281 1577.53125 1708.433594 1416.75 C 1708.125 1255.972656 1577.519531 1125.894531 1416.75 1126.214844 C 1255.980469 1126.53125 1125.917969 1257.128906 1126.226562 1417.882812 M 1228.339844 1417.679688 C 1228.332031 1414.585938 1228.402344 1411.496094 1228.546875 1408.40625 C 1228.695312 1405.316406 1228.914062 1402.234375 1229.210938 1399.15625 C 1229.507812 1396.078125 1229.882812 1393.007812 1230.328125 1389.949219 C 1230.777344 1386.886719 1231.300781 1383.839844 1231.898438 1380.804688 C 1232.496094 1377.769531 1233.167969 1374.753906 1233.910156 1371.75 C 1234.65625 1368.75 1235.476562 1365.769531 1236.367188 1362.808594 C 1237.261719 1359.84375 1238.222656 1356.90625 1239.261719 1353.992188 C 1240.296875 1351.078125 1241.402344 1348.191406 1242.582031 1345.332031 C 1243.757812 1342.472656 1245.007812 1339.644531 1246.324219 1336.847656 C 1247.640625 1334.046875 1249.023438 1331.28125 1250.476562 1328.550781 C 1251.929688 1325.820312 1253.449219 1323.128906 1255.03125 1320.472656 C 1256.617188 1317.816406 1258.265625 1315.203125 1259.980469 1312.625 C 1261.691406 1310.050781 1263.46875 1307.519531 1265.304688 1305.03125 C 1267.144531 1302.542969 1269.039062 1300.105469 1270.996094 1297.710938 C 1272.957031 1295.3125 1274.96875 1292.96875 1277.042969 1290.671875 C 1279.113281 1288.378906 1281.242188 1286.132812 1283.425781 1283.941406 C 1285.609375 1281.75 1287.84375 1279.617188 1290.128906 1277.535156 C 1292.417969 1275.453125 1294.753906 1273.429688 1297.140625 1271.460938 C 1299.527344 1269.496094 1301.960938 1267.589844 1304.441406 1265.742188 C 1306.921875 1263.894531 1309.449219 1262.109375 1312.015625 1260.382812 C 1314.582031 1258.660156 1317.191406 1257.003906 1319.84375 1255.40625 C 1322.492188 1253.8125 1325.179688 1252.28125 1327.902344 1250.820312 C 1330.628906 1249.355469 1333.386719 1247.960938 1336.179688 1246.632812 C 1338.972656 1245.304688 1341.796875 1244.046875 1344.652344 1242.855469 C 1347.507812 1241.667969 1350.390625 1240.550781 1353.300781 1239.5 C 1356.210938 1238.453125 1359.144531 1237.476562 1362.101562 1236.574219 C 1365.058594 1235.671875 1368.039062 1234.839844 1371.035156 1234.082031 C 1374.035156 1233.324219 1377.050781 1232.640625 1380.082031 1232.03125 C 1383.113281 1231.421875 1386.160156 1230.886719 1389.21875 1230.429688 C 1392.277344 1229.96875 1395.34375 1229.585938 1398.421875 1229.273438 C 1401.5 1228.964844 1404.582031 1228.730469 1407.671875 1228.574219 C 1410.757812 1228.417969 1413.851562 1228.335938 1416.941406 1228.328125 C 1420.035156 1228.320312 1423.125 1228.390625 1426.214844 1228.539062 C 1429.304688 1228.683594 1432.390625 1228.90625 1435.46875 1229.203125 C 1438.546875 1229.5 1441.617188 1229.871094 1444.675781 1230.320312 C 1447.734375 1230.765625 1450.785156 1231.289062 1453.816406 1231.886719 C 1456.851562 1232.484375 1459.871094 1233.15625 1462.871094 1233.902344 C 1465.875 1234.644531 1468.855469 1235.464844 1471.816406 1236.355469 C 1474.777344 1237.25 1477.714844 1238.214844 1480.628906 1239.25 C 1483.542969 1240.285156 1486.429688 1241.390625 1489.289062 1242.570312 C 1492.148438 1243.75 1494.980469 1244.996094 1497.777344 1246.3125 C 1500.574219 1247.628906 1503.339844 1249.015625 1506.070312 1250.464844 C 1508.800781 1251.917969 1511.496094 1253.4375 1514.148438 1255.023438 C 1516.804688 1256.605469 1519.421875 1258.253906 1521.996094 1259.96875 C 1524.570312 1261.683594 1527.101562 1263.457031 1529.589844 1265.296875 C 1532.078125 1267.132812 1534.519531 1269.03125 1536.914062 1270.988281 C 1539.308594 1272.945312 1541.652344 1274.960938 1543.949219 1277.03125 C 1546.246094 1279.105469 1548.488281 1281.230469 1550.679688 1283.414062 C 1552.871094 1285.597656 1555.007812 1287.832031 1557.089844 1290.121094 C 1559.171875 1292.40625 1561.195312 1294.742188 1563.160156 1297.128906 C 1565.128906 1299.519531 1567.035156 1301.953125 1568.882812 1304.433594 C 1570.730469 1306.914062 1572.515625 1309.4375 1574.238281 1312.003906 C 1575.960938 1314.574219 1577.621094 1317.183594 1579.214844 1319.832031 C 1580.8125 1322.480469 1582.339844 1325.167969 1583.804688 1327.894531 C 1585.269531 1330.617188 1586.664062 1333.375 1587.992188 1336.167969 C 1589.320312 1338.960938 1590.578125 1341.785156 1591.765625 1344.640625 C 1592.957031 1347.496094 1594.074219 1350.378906 1595.121094 1353.289062 C 1596.167969 1356.199219 1597.144531 1359.132812 1598.050781 1362.089844 C 1598.953125 1365.046875 1599.785156 1368.027344 1600.539062 1371.027344 C 1601.296875 1374.023438 1601.980469 1377.039062 1602.589844 1380.070312 C 1603.199219 1383.105469 1603.734375 1386.148438 1604.195312 1389.207031 C 1604.65625 1392.265625 1605.039062 1395.332031 1605.347656 1398.410156 C 1605.65625 1401.488281 1605.890625 1404.570312 1606.050781 1407.660156 C 1606.207031 1410.75 1606.289062 1413.839844 1606.296875 1416.933594 C 1606.300781 1420.023438 1606.230469 1423.117188 1606.085938 1426.207031 C 1605.941406 1429.292969 1605.71875 1432.378906 1605.421875 1435.457031 C 1605.125 1438.535156 1604.753906 1441.605469 1604.304688 1444.664062 C 1603.855469 1447.726562 1603.335938 1450.773438 1602.738281 1453.808594 C 1602.140625 1456.839844 1601.46875 1459.859375 1600.722656 1462.859375 C 1599.976562 1465.863281 1599.160156 1468.84375 1598.265625 1471.804688 C 1597.375 1474.765625 1596.410156 1477.703125 1595.375 1480.617188 C 1594.339844 1483.53125 1593.230469 1486.417969 1592.054688 1489.277344 C 1590.875 1492.140625 1589.628906 1494.96875 1588.3125 1497.765625 C 1586.996094 1500.566406 1585.609375 1503.328125 1584.15625 1506.058594 C 1582.703125 1508.789062 1581.1875 1511.484375 1579.601562 1514.140625 C 1578.015625 1516.796875 1576.367188 1519.410156 1574.65625 1521.984375 C 1572.941406 1524.5625 1571.167969 1527.09375 1569.328125 1529.578125 C 1567.492188 1532.066406 1565.59375 1534.507812 1563.636719 1536.902344 C 1561.679688 1539.296875 1559.664062 1541.644531 1557.59375 1543.9375 C 1555.519531 1546.234375 1553.390625 1548.476562 1551.210938 1550.667969 C 1549.027344 1552.859375 1546.792969 1554.996094 1544.503906 1557.078125 C 1542.21875 1559.160156 1539.878906 1561.183594 1537.492188 1563.152344 C 1535.105469 1565.117188 1532.671875 1567.023438 1530.191406 1568.871094 C 1527.710938 1570.71875 1525.1875 1572.503906 1522.617188 1574.226562 C 1520.050781 1575.953125 1517.441406 1577.609375 1514.792969 1579.207031 C 1512.144531 1580.800781 1509.457031 1582.332031 1506.730469 1583.792969 C 1504.007812 1585.257812 1501.246094 1586.652344 1498.453125 1587.980469 C 1495.660156 1589.308594 1492.835938 1590.566406 1489.980469 1591.757812 C 1487.125 1592.945312 1484.246094 1594.0625 1481.335938 1595.113281 C 1478.425781 1596.160156 1475.492188 1597.136719 1472.53125 1598.039062 C 1469.574219 1598.941406 1466.597656 1599.773438 1463.597656 1600.53125 C 1460.601562 1601.289062 1457.585938 1601.972656 1454.550781 1602.582031 C 1451.519531 1603.191406 1448.476562 1603.722656 1445.417969 1604.183594 C 1442.359375 1604.644531 1439.289062 1605.027344 1436.214844 1605.335938 C 1433.136719 1605.648438 1430.050781 1605.878906 1426.964844 1606.039062 C 1423.875 1606.195312 1420.785156 1606.277344 1417.691406 1606.285156 C 1414.597656 1606.289062 1411.507812 1606.222656 1408.417969 1606.078125 C 1405.328125 1605.929688 1402.246094 1605.710938 1399.164062 1605.414062 C 1396.085938 1605.117188 1393.019531 1604.746094 1389.957031 1604.296875 C 1386.898438 1603.847656 1383.851562 1603.328125 1380.816406 1602.730469 C 1377.78125 1602.132812 1374.761719 1601.460938 1371.761719 1600.714844 C 1368.757812 1599.972656 1365.777344 1599.152344 1362.816406 1598.261719 C 1359.855469 1597.371094 1356.914062 1596.40625 1354 1595.371094 C 1351.085938 1594.332031 1348.199219 1593.226562 1345.339844 1592.046875 C 1342.480469 1590.871094 1339.652344 1589.625 1336.851562 1588.308594 C 1334.054688 1586.992188 1331.289062 1585.605469 1328.558594 1584.152344 C 1325.828125 1582.699219 1323.136719 1581.183594 1320.480469 1579.597656 C 1317.824219 1578.011719 1315.207031 1576.363281 1312.632812 1574.652344 C 1310.058594 1572.9375 1307.527344 1571.164062 1305.039062 1569.324219 C 1302.550781 1567.488281 1300.109375 1565.589844 1297.714844 1563.632812 C 1295.320312 1561.675781 1292.972656 1559.660156 1290.679688 1557.589844 C 1288.382812 1555.515625 1286.140625 1553.386719 1283.949219 1551.207031 C 1281.757812 1549.023438 1279.621094 1546.789062 1277.539062 1544.5 C 1275.457031 1542.210938 1273.433594 1539.875 1271.464844 1537.488281 C 1269.5 1535.101562 1267.589844 1532.667969 1265.746094 1530.1875 C 1263.898438 1527.707031 1262.113281 1525.179688 1260.386719 1522.613281 C 1258.664062 1520.046875 1257.003906 1517.4375 1255.410156 1514.785156 C 1253.816406 1512.136719 1252.285156 1509.449219 1250.824219 1506.722656 C 1249.359375 1504 1247.964844 1501.242188 1246.636719 1498.445312 C 1245.308594 1495.652344 1244.050781 1492.828125 1242.859375 1489.972656 C 1241.671875 1487.117188 1240.554688 1484.238281 1239.507812 1481.328125 C 1238.457031 1478.417969 1237.484375 1475.480469 1236.578125 1472.523438 C 1235.675781 1469.566406 1234.847656 1466.585938 1234.089844 1463.589844 C 1233.332031 1460.589844 1232.648438 1457.574219 1232.039062 1454.542969 C 1231.429688 1451.511719 1230.894531 1448.464844 1230.4375 1445.40625 C 1229.976562 1442.347656 1229.59375 1439.28125 1229.285156 1436.203125 C 1228.976562 1433.125 1228.742188 1430.042969 1228.585938 1426.953125 C 1228.425781 1423.863281 1228.34375 1420.773438 1228.339844 1417.679688 "/></g></g></svg>